<svg xmlns="http://www.w3.org/2000/svg" viewBox="0 0 266.4 235.04"><defs><style>.cls-1{isolation:isolate;}.cls-2{fill:#fff;}.cls-3{fill:#e93e32;}.cls-4,.cls-5{fill:#231f20;opacity:0.2;}.cls-4{mix-blend-mode:multiply;}.cls-6{fill:#922723;}.cls-7{fill:#e83d32;}.cls-8{fill:#ffde17;}</style></defs><title>Artboard 26</title><g class="cls-1"><g id="Layer_1" data-name="Layer 1"><path class="cls-2" d="M122,159.46a3,3,0,0,0,3.69-.16c4.42-3.78,6.82-9.7,8.13-15a3,3,0,0,0,2-1.32c3.12-4.85,3-10.46,1.71-15.5a3,3,0,0,0,1.66-3.3c-1.37-6.84-7.12-13.12-10.24-16.11,10.43-16.21,10.18-23.8,10.11-24.65a3,3,0,0,0-1.85-2.54,30.8,30.8,0,0,0-11.8-2.22,49.29,49.29,0,0,0-19.57,4.54,25.54,25.54,0,0,0-17.14-6.85c-.79,0-1.23,0-1.23,0a3,3,0,0,0-2.41,1.72q-1.35-.25-2.65-.44C80.26,73.81,74.55,66.83,61,66.07h-.14c-.75,0-1.5-.07-2.29-.07h-.19a3,3,0,0,0-2.9,2.28C55.22,69.43,53,78.67,54.68,86c-3.57,2-4.57,3.86-4.84,4.9a3,3,0,0,0,2.91,3.75,2.94,2.94,0,0,0,.62-.06l.44-.09-1.33,5.36a23.48,23.48,0,0,0-10.34,6.56,3,3,0,0,0-.26,3.46A24.34,24.34,0,0,0,35,121.49a3,3,0,0,0,1.66,3.3A13.09,13.09,0,0,0,42.46,139l.33.16a43.14,43.14,0,0,0,8.5,12.46,3.07,3.07,0,0,0,2.13.87,3,3,0,0,0,.93-.15,32.34,32.34,0,0,0,4.64,4.4,3,3,0,0,0,1.72.59,57.8,57.8,0,0,0-3.13,9.28,7.93,7.93,0,0,0-2.38-.1,9.08,9.08,0,0,0-7.34,6.62,16.89,16.89,0,0,0,.06,8.38,44.61,44.61,0,0,0,4.52,12.06,9.83,9.83,0,0,0-1.89.34,8.16,8.16,0,0,0-5.23,4.68,6.23,6.23,0,0,0,.28,5.56,3,3,0,0,0,2.6,1.51h84.65a3,3,0,0,0,2.6-1.51,6.23,6.23,0,0,0,.28-5.56,8.17,8.17,0,0,0-5.23-4.68,9.74,9.74,0,0,0-1.89-.33,44.6,44.6,0,0,0,4.52-12.07,16.89,16.89,0,0,0,.06-8.38,9.08,9.08,0,0,0-7.34-6.62,7.9,7.9,0,0,0-.87,0,8,8,0,0,0-1.52.15,73.06,73.06,0,0,0-2.16-7.68l0,0A3,3,0,0,0,122,159.46ZM52.24,199.61a5.33,5.33,0,0,1,2.26,0Zm8.95-3.7a38.64,38.64,0,0,1-7.41-15.72,11.49,11.49,0,0,1-.17-5.4,3.21,3.21,0,0,1,2.25-2.37,2,2,0,0,1,.57,0,51.92,51.92,0,0,0-.51,11.31,3,3,0,0,0,3,2.72h2.46s0,.07,0,.1c0,4,3.06,7.53,8.14,10a24.47,24.47,0,0,0-2.56,3H61.21l.06-.08A3,3,0,0,0,61.19,195.92Z"/><path class="cls-3" d="M58.9,183.48s-2-21,12.65-37.84h39.84s10.88,14,11,37.84Z"/><path class="cls-4" d="M63.47,158.49s25.75,10.77,53.75-1.93a49.58,49.58,0,0,0-5.83-10.92H71.55A49.22,49.22,0,0,0,65,155.3Z"/><ellipse class="cls-3" cx="89.76" cy="186.58" rx="25.4" ry="11.06"/><path class="cls-5" d="M69.26,187.34s3.12-8.65-8.89-19.48l-.85,4.74,7.56,14Z"/><path class="cls-3" d="M69.09,189.39c1-5.94-2.6-11.67-6.64-16.14-1.83-2-4.2-4.11-6.92-3.81a6.11,6.11,0,0,0-4.8,4.5,14,14,0,0,0,.12,6.89,41.59,41.59,0,0,0,8,17c-2.41-.87-5-1.73-7.48-1s-4.43,3.65-3.16,5.87h78.22"/><path class="cls-3" d="M129.69,196.74c-2.47-.69-5.07.16-7.48,1a41.59,41.59,0,0,0,8-17,14,14,0,0,0,.12-6.89,6.11,6.11,0,0,0-4.8-4.5c-2.72-.3-5.09,1.77-6.92,3.81-4,4.48-7.64,10.2-6.64,16.14l-19.75,4.56a72,72,0,0,1-.3,8.67h40.94C134.12,200.39,132.16,197.44,129.69,196.74Z"/><path class="cls-6" d="M91.36,180.26h-.09c-2.91-.05-5.12-2.67-5.8-5.23a15.85,15.85,0,0,1,0-6.52c-2.09,2.32-4.29,4.57-6.56,6.7a10.21,10.21,0,0,1-3.52,2.44,4,4,0,0,1-4.28-.87c-.85-1-1.07-2.41-.68-4.4a20.3,20.3,0,0,1,10.41-14,.42.42,0,1,1,.39.74,19.72,19.72,0,0,0-10,13.38c-.34,1.72-.18,2.93.49,3.69a3.21,3.21,0,0,0,3.38.63,9.54,9.54,0,0,0,3.22-2.26c2.6-2.44,5.12-5,7.47-7.73a.42.42,0,0,1,.72.35c-.42,2.4-.89,5.11-.23,7.6.6,2.26,2.51,4.56,5,4.61s4.34-2.07,5.08-4a16.86,16.86,0,0,0,.49-7.18.42.42,0,0,1,.83-.11,10.17,10.17,0,0,0,5.24,7,5.23,5.23,0,0,0,4.87.31c1.89-1.07,2.22-3.57,2.27-4.6.26-5.22-3.11-10-6.07-13.6a.42.42,0,0,1,.64-.53c3.06,3.71,6.53,8.66,6.26,14.17-.06,1.16-.44,4-2.69,5.28a6,6,0,0,1-5.66-.3,11,11,0,0,1-4.7-4.77,12.88,12.88,0,0,1-.69,4.57C96.32,177.89,94.17,180.26,91.36,180.26Z"/><path class="cls-6" d="M69.39,202.46a.42.42,0,0,1-.34-.66c3-4.18,6-6.2,9-6,3.39.24,5.82,3.17,7,4.86L86.4,177a.42.42,0,1,1,.83,0l-1.44,25a.42.42,0,0,1-.79.17c0-.05-2.77-5.29-7-5.58-2.72-.19-5.52,1.7-8.29,5.63A.42.42,0,0,1,69.39,202.46Z"/><path class="cls-6" d="M113.49,202.46a.42.42,0,0,1-.34-.18c-2.78-3.93-5.56-5.82-8.29-5.63-4.21.29-7,5.53-7,5.58a.42.42,0,0,1-.79-.17l-1.44-25a.42.42,0,1,1,.83,0l1.36,23.65c1.13-1.69,3.57-4.62,7-4.86,3-.21,6.08,1.8,9,6a.42.42,0,0,1-.34.66Z"/><path class="cls-5" d="M120.83,171.11s-5.85,6-7.9,10.71c0,0,1.23-7.55,7.18-12.41Z"/><polygon class="cls-2" points="95.27 153.93 118.83 143 123.34 113.46 124.62 104.06 133.66 86.29 128.23 82.14 112.19 85.76 94.73 94.27 72.29 77.53 60.93 69.07 62.21 93.22 51.8 112.19 55.51 131.22 73.27 150.68 95.27 153.93"/><path class="cls-7" d="M41.78,119.83c-6.46,11.78,2.13,16.5,2.13,16.5-.35-.66-.16-4-.16-4,1.89,9.62,9.63,17.13,9.63,17.13a57.38,57.38,0,0,1-1.07-7c1.32,6.52,8.47,11.84,8.47,11.84-.83-.92-1.74-6.66-1.74-6.66a24.92,24.92,0,0,0,8.23,9.44,13.13,13.13,0,0,0,2.67,1.41l1.06.39h0l-.06,0a23.64,23.64,0,0,1,5.17,1.71c-6.29-2.93-3.91-1.27,0-.92,2.88.26,4.78.91,7.34.33,5.33-1.22,10.64-2.27,16-3.18,5.9-1,9.39-2.58,14.72-4.42l3.37-.62c2-1.52,3.95-2.95,6.06-4.29.34-.22.7-.4,1.06-.59a60.54,60.54,0,0,0,2.6-6.64c.51,1.38.14,3.6-.43,5.65a17.18,17.18,0,0,1,2.8-.75l.06-.1a6.42,6.42,0,0,1,.87-1l-.35.18A35.11,35.11,0,0,0,132,132.13c1.91,2.22,1.3,9.19,1.3,9.19,6.79-10.57-5.13-26.42-5.13-26.42,3.2,2,8.08,9.82,8.08,9.82-1.68-8.36-11.22-16.19-11.22-16.19,11.64-17.35,11-24.91,11-24.91-14.32-5.91-30.83,3.18-30.83,3.18a22.45,22.45,0,0,0-17.48-7.45c3.7.89,6.83,4.3,6.83,4.3a73,73,0,0,0-14.17-3.25c-1.13-2.72-6-11.48-22-11.42,0,0-2.91,11.75-.13,18.56-5.05,2.17-5.54,4.07-5.54,4.07l5.12-1.08L55,102.26a20.64,20.64,0,0,0-10.52,6c1.18-.69,5.05-.29,5.05-.29A22.35,22.35,0,0,0,38,122.08,5.63,5.63,0,0,1,41.78,119.83Zm70.72-29s10.75-6.54,18-3.46c0,0-3.11,10-8.57,14.11C121.9,101.45,117.89,94.67,112.49,90.79ZM71.29,111.53c1.51-8.15,9.16-18.92,15.9-17.67s10,14,8.51,22.2-8.2,13.74-14.94,12.49S69.78,119.68,71.29,111.53ZM68,122.28c5.36,2.44-7.31,5.76-7.31,5.76a24.14,24.14,0,0,1-3.36-7.36C56.63,117.26,62.6,119.84,68,122.28ZM62.39,73.59c8.93,1,14,8,12.58,8.44-3.21,1-11.6,7-11.6,7C59.56,84.57,62.39,73.59,62.39,73.59Z"/><path class="cls-7" d="M132.36,132.41s-.11,17.28-8.66,24.61c0,0,2.83-7.14,3-10.45,0,0-3.69,13.54-23.77,16.83a23.94,23.94,0,0,0,9.32-7.29s-25.82,13.16-44.56,1.24l36.74-9.26s16.7-15.77,17.1-15.82S132.36,132.41,132.36,132.41Z"/><ellipse class="cls-4" cx="100.86" cy="226.01" rx="98.51" ry="4.64"/><path d="M38.91,191,32.4,217.61s68.28,23.61,113.14-1.58l-5.59-24.23S98.94,213.58,38.91,191Z"/><ellipse cx="88.46" cy="42.56" rx="6.98" ry="4.47" transform="translate(-3.28 7.63) rotate(-4.85)"/><path d="M89.59,40.17a1.53,1.53,0,0,1-1.28-2.38,17.29,17.29,0,0,0-4.91-24,13.53,13.53,0,0,0-18.74,3.84,10.53,10.53,0,0,0,3,14.57,8.12,8.12,0,0,0,11.23-2.3,1.53,1.53,0,1,1,2.56,1.69A11.19,11.19,0,0,1,66,34.81,13.6,13.6,0,0,1,62.09,16a16.59,16.59,0,0,1,23-4.71,20.36,20.36,0,0,1,5.78,28.2A1.53,1.53,0,0,1,89.59,40.17Z"/><path d="M58.17,202.09c-17.75-91.83-8.22-130.61,2.89-147C67.25,46,73.06,45,73.32,45l1,2.71L74,46.2l.3,1.5c-.1,0-10.21,2.34-16.92,22.12-6.29,18.55-10.74,56.46,3.8,131.69Z"/><path d="M79.44,205.23C68.29,62,84.19,44.31,84.87,43.63l2.2,2.13c-.64.72-15.48,19.16-4.57,159.23Z"/><path d="M105.81,205.88l-3-.33C115.58,86.6,94.34,46.81,94.12,46.42l2.68-1.49C97.7,46.55,118.73,86,105.81,205.88Z"/><path d="M125.44,200.28l-3-.83c10-35.33,18.89-85.19,5-122.08-8.27-21.92-20.92-28.92-21-29l1.44-2.71c.55.29,13.63,7.45,22.35,30.28C138.15,96.77,143.77,135.22,125.44,200.28Z"/><path d="M91.16,210,40.65,197.48l-.27-.79A303.57,303.57,0,0,1,29,147.18c-5.13-36.52-1.42-64,11-81.56,10.18-14.38,26.17-21.77,47.51-22a82.55,82.55,0,0,1,25.95,3.59,50.7,50.7,0,0,1,16.2,8.86c1.38,1.1,2.75,2.34,4.09,3.55,3.9,3.52,7.93,7.16,12.76,8.15a13.87,13.87,0,0,0,13.33-5.41,8.9,8.9,0,0,0,.63-10c-1.26-2.23-3.3-3.82-5.45-5.51a31.1,31.1,0,0,1-4.7-4.23,13.75,13.75,0,0,1-3.08-10.21,13.47,13.47,0,0,1,4.88-9.25,7.79,7.79,0,0,1,6.49-1.68c3.39.79,5.38,4,6.74,6.67C169.35,36,174.06,41,179,42.57a8.42,8.42,0,0,0,6.8-.59c3.09-1.68,5.76-5.45,7-9.82,1.73-6.32,2-16-3.06-22.53a11.2,11.2,0,0,0-6.58-4.28,10.47,10.47,0,0,0-8.54,2.5c-5.29,4.49-5.75,11.25-2.88,14.74,1.54,2,3.76,4.12,5.79,3.16,2.67-1.26,4.49-7,3.53-11.19a1.53,1.53,0,0,1,3-.68c1.16,5.09-.86,12.59-5.21,14.65-1.75.83-5.31,1.4-9.5-4-4.83-5.87-2.07-14.44,3.29-19a13.56,13.56,0,0,1,11.08-3.17,14.08,14.08,0,0,1,8.44,5.42c5.72,7.41,5.51,18.21,3.6,25.21-1.43,5.23-4.59,9.61-8.45,11.71a11.52,11.52,0,0,1-9.2.82c-5.82-1.85-11-7.22-15.43-16-1.06-2.09-2.55-4.56-4.7-5.06a4.73,4.73,0,0,0-3.89,1.09,10.4,10.4,0,0,0-3.73,7.15,10.67,10.67,0,0,0,2.36,7.93,28.45,28.45,0,0,0,4.25,3.8c2.29,1.79,4.67,3.65,6.23,6.41a11.92,11.92,0,0,1-.82,13.35c-3.67,5-10.57,7.81-16.43,6.61-5.66-1.16-10-5.08-14.2-8.88-1.36-1.23-2.64-2.39-3.95-3.43a47.66,47.66,0,0,0-15.22-8.33,80,80,0,0,0-25-3.45c-20.3.19-35.46,7.15-45,20.68-27.24,38.46-2.37,118.68.5,127.52l48.05,11.94,46-14.09c1.4-4.72,2.49-9.62,3.55-14.37l.45-2c.22-1,.43-2,.64-3,.93-4.47,1.9-9.09,4-13.15a14.88,14.88,0,0,1,12.83-8.42c4.23-.12,9.86,1.52,11.76,6.57,1.61,4.28.2,8.24-1.16,12.06-1,2.86-2,5.56-1.65,8.27a8,8,0,0,0,4,6,7,7,0,0,0,6.55.2,7.53,7.53,0,0,0,4.36-6,12.23,12.23,0,0,0-1.65-7.36,3,3,0,0,0-1.15-1.06,1.79,1.79,0,0,0-1.91.35,6.6,6.6,0,0,0-1,2.79,1.53,1.53,0,0,1-1.6,2.59,2.5,2.5,0,0,1-1.4-1.89c-.34-1.88,1-4.77,1.82-5.63a4.84,4.84,0,0,1,5.37-1,6,6,0,0,1,2.39,2.1c2.26,3.23,2.29,7.57,2.19,9.28a10.57,10.57,0,0,1-6.13,8.64,10.17,10.17,0,0,1-9.33-.3,11.05,11.05,0,0,1-5.53-8.35c-.41-3.42.72-6.59,1.81-9.67,1.23-3.46,2.39-6.72,1.18-10-1.33-3.53-5.59-4.65-8.81-4.58a11.85,11.85,0,0,0-10.18,6.76c-1.89,3.69-2.81,8.11-3.7,12.38-.21,1-.43,2-.65,3l-.45,2c-1.13,5.07-2.29,10.3-3.84,15.38l-.24.78Z"/><ellipse class="cls-7" cx="92.73" cy="111.5" rx="2.25" ry="4.47"/><ellipse class="cls-2" cx="66.8" cy="111.5" rx="4.79" ry="2.24" transform="translate(-59.38 142.69) rotate(-72.96)"/><path class="cls-2" d="M94.54,152.6c-1.44-2.64-3.12-4.06-5-4.23-3.18-.26-5.94,3.11-6,3.14l-.78-.63c.13-.16,3.13-3.83,6.83-3.51,2.22.2,4.16,1.79,5.78,4.74Z"/><path class="cls-8" d="M195.41,81.94s22.39,2,29.71,6L230,96.79s-1.69-6.1-3.36-8.77c0,0,25.31,14,27,35.88l1.36-5.44.34,5.11,4.59,1.41-5.06,1.19-1.14,5.42L253,128l-4.9.32,3.26-2.57s-18.61.15-31.64-19.1c0,0,7.45,2.61,10.4,2,0,0-10.27-1.57-12.54-5.16C217.59,103.49,207.64,87.34,195.41,81.94Z"/><path class="cls-2" d="M201.78,84.41s29.49,7,60.1,51.64l-2.2,1.29S247.31,105.42,201.78,84.41Z"/></g></g></svg>