<svg xmlns="http://www.w3.org/2000/svg" viewBox="0 0 371.47 256.51"><defs><style>.cls-1{isolation:isolate;}.cls-2{fill:#ffde17;}.cls-3{fill:#f1f2f2;}.cls-4{fill:#f26522;}.cls-5{fill:#231f20;opacity:0.1;mix-blend-mode:multiply;}.cls-6{fill:#808285;}</style></defs><title>Artboard 27</title><g class="cls-1"><g id="Layer_1" data-name="Layer 1"><path class="cls-2" d="M320.25,32.64c9.41,5.59,20.37-2.17,25.2-10.31,2.12-3.56,3.29-8.55,6-11.46,3.79-4.32,8.85-.53,7.79,4.56-.88,4.85-4.68,9.17-8.32,12.32,3.41-3.32,9.64-5.26,14.08-2.85,6.23,3.21,2.5,9.41-1.71,12.32-3.71,2.73-8,3.35-12.47,3.88,4.62,0,10-.06,12.61,4.5,2.84,4.86-.46,9-4.43,11.88a17.12,17.12,0,0,1-7.78,2.93,25.59,25.59,0,0,1-16-3.5c-4.12-2.32-8.33-5-11.17-8.85-2.38-3.44-5.17-9.76-3.55-13.88"/><path class="cls-3" d="M264.57,81.65s26.34,1,15.79-47.34S337.81,0,339.12,34.9,305.31,105,264.57,81.65Z"/><path class="cls-2" d="M267.49,81.31c6.55-1.44,21.19-8.86,12.86-47s32-37.47,50.2-18.54a10.65,10.65,0,0,0-1.66-.63c-4.82-1.38-5.35,3.57-5.16,7.09-.72-2-3-3.68-4.8-4.81A16,16,0,0,0,305,15.75,11.09,11.09,0,0,0,299.09,22c-1.7,5.06-.57,11.45.53,16.54,1.73,8,4,15.91,4.16,24.13.13,5.56-.73,11.6-3.49,16.51a17,17,0,0,1-8,6.55c-5.56,2.08-12,.4-17.41-1.38A49.13,49.13,0,0,1,267.49,81.31Z"/><path class="cls-2" d="M268.71,82.14a15.51,15.51,0,0,1,1.38-4.92A23.08,23.08,0,0,0,271.67,72c.19-1.48.19-3.33-1-4.45s-2.22.41-2.53,1.53a14,14,0,0,0-.37,4.75c.12,1.6.42,3.19.56,4.79a13.76,13.76,0,0,0-1.74-4.89c-.36-.69-1.08-2.08-2-2.07-1.9,0-.27,3.69,0,4.38.74,1.66,1.43,3.33,2.09,5a25.28,25.28,0,0,1-2.22-2.11c-.62-.56-1.26-1.4-2.15-1.5a.87.87,0,0,0-1,1.05c.13,1.41,1.49,2.23,2.61,2.83a27.13,27.13,0,0,0,4.39,2"/><polygon class="cls-4" points="329.61 36.87 318.87 38.57 325.78 47.95 329.61 36.87"/><path class="cls-5" d="M281.76,65.14s13.74-5,12.83-24.31L282.53,58.59A28.35,28.35,0,0,1,281.76,65.14Z"/><path class="cls-2" d="M294.48,39.86c-9.85,4.76-20.11-3.91-24.22-12.43-1.8-3.72-2.55-8.8-5-11.94-3.41-4.63-8.77-1.28-8.15,3.87.46,4.91,3.87,9.54,7.24,13-3.11-3.6-9.16-6.07-13.79-4-6.48,2.66-3.29,9.16.65,12.42,3.46,3,7.71,4,12.09,4.93-4.6-.42-9.92-.91-13,3.4-3.24,4.6-.31,9,3.39,12.21a17.14,17.14,0,0,0,7.5,3.58,25.58,25.58,0,0,0,16.2-2.12c4.31-2,8.72-4.25,11.89-7.86,2.67-3.22,6.39-10.71,5.13-14.95"/><path class="cls-6" d="M311.72,33.53h-.11a.5.5,0,0,1-.37-.6c.06-.24,1.41-5.85,4.78-6.49,2.08-.41,4.36,1.17,6.8,4.67a.5.5,0,0,1-.82.57c-2.16-3.1-4.17-4.57-5.79-4.26-2.74.52-4,5.69-4,5.74A.5.5,0,0,1,311.72,33.53Z"/><path class="cls-6" d="M329,31.14h0a.42.42,0,0,1-.39-.45c0-.52.44-5.1,2.76-5.67,1.63-.41,3.57,1.26,5.95,5.08a.42.42,0,0,1-.71.45c-2.79-4.48-4.35-4.88-5-4.71-1.47.36-2,3.67-2.12,4.92A.42.42,0,0,1,329,31.14Z"/><path class="cls-3" d="M250.89,74.06a.5.5,0,0,1,0-1l2.5-.12a.47.47,0,0,1,.52.47.5.5,0,0,1-.47.52l-2.5.12Z"/><path class="cls-3" d="M13.95,249.75a.5.5,0,0,1-.13-1c1.59-.43,3.2-.9,4.78-1.41a.5.5,0,1,1,.3,1c-1.6.51-3.23,1-4.83,1.42Zm9.54-3a.5.5,0,0,1-.17-1c1.54-.57,3.1-1.18,4.64-1.83a.5.5,0,1,1,.39.92c-1.56.65-3.13,1.27-4.68,1.85A.49.49,0,0,1,23.49,246.7Zm9.24-3.87a.5.5,0,0,1-.21-1c1.48-.69,3-1.43,4.48-2.2a.5.5,0,1,1,.46.89c-1.5.78-3,1.52-4.51,2.22A.5.5,0,0,1,32.73,242.83Zm8.91-4.59a.5.5,0,0,1-.25-.94c1.44-.81,2.88-1.66,4.31-2.53a.5.5,0,1,1,.52.85c-1.43.88-2.89,1.73-4.34,2.55A.5.5,0,0,1,41.64,238.24ZM50.19,233a.5.5,0,0,1-.28-.92c1.39-.91,2.78-1.86,4.13-2.81a.5.5,0,0,1,.58.82c-1.36,1-2.76,1.91-4.15,2.83A.5.5,0,0,1,50.19,233Zm8.19-5.77a.5.5,0,0,1-.3-.9c1.3-1,2.63-2,4-3.06a.5.5,0,1,1,.62.78c-1.33,1.06-2.67,2.09-4,3.07A.5.5,0,0,1,58.39,227.25ZM66.23,221a.5.5,0,0,1-.32-.88q1.91-1.61,3.78-3.27a.5.5,0,0,1,.66.75q-1.88,1.67-3.8,3.28A.49.49,0,0,1,66.23,221Zm7.5-6.65a.5.5,0,0,1-.34-.87l.54-.51Q75.49,211.53,77,210a.5.5,0,1,1,.7.71q-1.53,1.49-3.09,3l-.55.51A.5.5,0,0,1,73.73,214.36Zm7.17-7a.5.5,0,0,1-.36-.85q1.75-1.79,3.45-3.62a.5.5,0,1,1,.73.68q-1.71,1.84-3.46,3.64A.5.5,0,0,1,80.9,207.36ZM87.72,200a.5.5,0,0,1-.37-.83q1.65-1.87,3.26-3.79a.5.5,0,1,1,.77.64c-1.07,1.28-2.17,2.56-3.27,3.81A.5.5,0,0,1,87.72,200Zm6.43-7.69a.5.5,0,0,1-.39-.81c1-1.3,2.05-2.64,3-4a.5.5,0,1,1,.8.6c-1,1.33-2,2.68-3.06,4A.5.5,0,0,1,94.15,192.33Zm6-8a.5.5,0,0,1-.41-.79c1-1.37,1.9-2.76,2.81-4.13a.5.5,0,0,1,.84.55c-.91,1.38-1.86,2.78-2.82,4.16A.5.5,0,0,1,100.14,184.3Zm5.5-8.38a.49.49,0,0,1-.26-.07.5.5,0,0,1-.16-.69c.86-1.4,1.71-2.85,2.54-4.3a.5.5,0,0,1,.87.49c-.83,1.46-1.69,2.91-2.56,4.33A.5.5,0,0,1,105.64,175.92Zm5-8.71a.5.5,0,0,1-.44-.73c.78-1.48,1.53-3,2.25-4.46a.5.5,0,1,1,.9.43c-.72,1.49-1.48,3-2.26,4.49A.5.5,0,0,1,110.59,167.21Zm4.35-9a.5.5,0,0,1-.46-.7c.67-1.53,1.32-3.08,1.92-4.61a.5.5,0,0,1,.93.37c-.61,1.54-1.26,3.1-1.94,4.64A.5.5,0,0,1,114.94,158.18Zm3.69-9.32a.49.49,0,0,1-.17,0,.5.5,0,0,1-.31-.64c.55-1.57,1.08-3.16,1.57-4.74a.5.5,0,0,1,1,.29c-.49,1.59-1,3.2-1.58,4.78A.5.5,0,0,1,118.63,148.87Zm3-9.58-.13,0a.5.5,0,0,1-.36-.61c.43-1.61.82-3.25,1.18-4.85a.5.5,0,1,1,1,.22c-.36,1.62-.76,3.26-1.19,4.89A.5.5,0,0,1,121.58,139.29Zm2.17-9.78h-.09a.5.5,0,0,1-.4-.58c.29-1.62.55-3.28.78-4.93a.5.5,0,0,1,1,.13c-.23,1.67-.49,3.34-.79,5A.5.5,0,0,1,123.75,129.51Zm1.36-9.93h0a.5.5,0,0,1-.45-.54c.16-1.66.28-3.33.36-5a.48.48,0,0,1,.52-.47.5.5,0,0,1,.47.52c-.08,1.66-.21,3.35-.36,5A.5.5,0,0,1,125.11,119.58Zm.51-10h0a.5.5,0,0,1-.5-.5v-.73c0-1.41,0-2.85-.08-4.26a.5.5,0,0,1,.48-.52h0a.5.5,0,0,1,.5.48c.05,1.42.08,2.87.08,4.3v.73A.5.5,0,0,1,125.62,109.58Zm-2.54-8.19h-.16c-1.63,0-3.27-.05-4.88-.15a.5.5,0,0,1-.47-.53.47.47,0,0,1,.53-.47c1.59.1,3.21.15,4.81.15h.16a.5.5,0,0,1,0,1Zm5-.17a.5.5,0,0,1,0-1c1.63-.11,3.3-.26,5-.46a.5.5,0,0,1,.12,1c-1.68.2-3.37.36-5,.47Zm-15-.46H113c-1.67-.22-3.35-.49-5-.82a.5.5,0,0,1,.2-1c1.61.32,3.26.59,4.91.81a.5.5,0,0,1-.06,1ZM138,100a.5.5,0,0,1-.08-1c1.6-.27,3.25-.59,4.9-1a.5.5,0,1,1,.21,1c-1.66.36-3.32.68-4.94,1Zm-12.81-.46a.5.5,0,0,1-.5-.46c-.14-1.64-.32-3.31-.54-5a.5.5,0,1,1,1-.13c.22,1.66.4,3.34.55,5a.5.5,0,0,1-.46.54Zm-22-.78-.13,0c-1.63-.45-3.25-1-4.81-1.53a.5.5,0,0,1,.34-.94c1.54.56,3.14,1.06,4.74,1.51a.5.5,0,0,1-.13,1Zm44.56-.88a.5.5,0,0,1-.13-1c1.57-.41,3.19-.86,4.81-1.35a.5.5,0,1,1,.29,1c-1.63.49-3.26.95-4.84,1.36Zm-54-2.53a.51.51,0,0,1-.21,0c-1.55-.71-3.06-1.48-4.5-2.3a.5.5,0,0,1,.49-.87c1.42.8,2.9,1.56,4.42,2.25a.5.5,0,0,1-.21,1ZM157.42,95a.5.5,0,0,1-.16-1c1.53-.51,3.12-1.07,4.72-1.65a.5.5,0,0,1,.34.94c-1.61.59-3.2,1.14-4.74,1.66Zm9.42-3.43a.5.5,0,0,1-.18-1q2.33-.91,4.64-1.86a.5.5,0,0,1,.38.92q-2.32,1-4.66,1.87A.49.49,0,0,1,166.84,91.6Zm-81.7-1.18a.5.5,0,0,1-.29-.09c-1.39-1-2.74-2-4-3.1a.5.5,0,0,1,.65-.76c1.24,1.06,2.55,2.08,3.92,3a.5.5,0,0,1-.29.91Zm38.75-.79a.5.5,0,0,1-.49-.41c-.3-1.63-.64-3.28-1-4.88a.5.5,0,0,1,.37-.6.49.49,0,0,1,.6.37c.38,1.62.73,3.28,1,4.93a.5.5,0,0,1-.4.58Zm52.22-1.84a.5.5,0,0,1-.2-1l4.59-2a.5.5,0,0,1,.4.91q-2.29,1-4.6,2A.49.49,0,0,1,176.11,87.79ZM77.56,83.91a.5.5,0,0,1-.36-.16q-.86-.91-1.67-1.86c-.55-.65-1.09-1.33-1.59-2a.5.5,0,0,1,.81-.59c.49.67,1,1.33,1.55,2s1.07,1.23,1.63,1.82a.5.5,0,0,1-.36.84Zm107.72-.17a.5.5,0,0,1-.21-1c1.75-.8,3.18-1.48,4.51-2.14a.5.5,0,1,1,.45.9c-1.34.66-2.78,1.35-4.54,2.15A.49.49,0,0,1,185.28,83.74Zm-63.69-3.85a.5.5,0,0,1-.48-.36c-.47-1.6-1-3.19-1.52-4.75a.5.5,0,0,1,.94-.33c.55,1.57,1.07,3.18,1.54,4.79a.5.5,0,0,1-.34.62Zm72.65-.63a.5.5,0,0,1-.25-.94c1.53-.87,2.92-1.71,4.24-2.6a.5.5,0,1,1,.56.83c-1.34.9-2.75,1.76-4.3,2.64A.5.5,0,0,1,194.24,79.26ZM71.67,75.84a.5.5,0,0,1-.44-.26,32.72,32.72,0,0,1-2-4.65.5.5,0,1,1,.95-.33,31.53,31.53,0,0,0,2,4.51.5.5,0,0,1-.44.74Zm149.79-.56h-.61a.5.5,0,0,1,0-1h.61c1.46,0,2.92,0,4.38-.07a.5.5,0,1,1,0,1C224.41,75.25,222.93,75.28,221.47,75.28Zm-5.62-.16h0c-1.75-.11-3.43-.28-5-.5a.5.5,0,0,1-.43-.56.51.51,0,0,1,.56-.43c1.56.22,3.23.38,4.95.49a.5.5,0,0,1,0,1Zm15-.11a.5.5,0,0,1,0-1l5-.24a.48.48,0,0,1,.52.48.5.5,0,0,1-.48.52l-5,.24Zm10-.47a.5.5,0,0,1,0-1l5-.24a.49.49,0,0,1,.52.48.5.5,0,0,1-.48.52l-5,.24Zm-34.94-.84h-.12q-1.12-.27-2.24-.6l-.12,0-.61.51a.5.5,0,1,1-.63-.77l.12-.1q-.69-.23-1.36-.49a.5.5,0,0,1,.36-.93c.62.24,1.26.46,1.9.67q.68-.59,1.32-1.2t1.3-1.3a.5.5,0,0,1,.73.69q-.65.69-1.34,1.34l-.88.82q.85.24,1.7.45a.5.5,0,0,1-.12,1Zm-87.67-3.25a.5.5,0,0,1-.46-.31c-.65-1.56-1.35-3.08-2.08-4.52a.5.5,0,0,1,.89-.45c.74,1.46,1.45,3,2.11,4.59a.5.5,0,0,1-.46.69Zm78.34-.33a.5.5,0,0,1-.24-.06,33.45,33.45,0,0,1-4.25-2.79.5.5,0,0,1,.61-.79,32.43,32.43,0,0,0,4.12,2.71.5.5,0,0,1-.24.94ZM68.45,66.4A.5.5,0,0,1,68,66a22.81,22.81,0,0,1-.24-3.25c0-.63,0-1.26.08-1.86a.52.52,0,0,1,.54-.45.5.5,0,0,1,.45.54c-.05.57-.08,1.17-.08,1.77A21.63,21.63,0,0,0,69,65.83a.5.5,0,0,1-.42.57Zm140.92,0a.5.5,0,0,1-.41-.79,31.62,31.62,0,0,0,2.52-4.23.5.5,0,1,1,.9.44,32.58,32.58,0,0,1-2.6,4.37A.5.5,0,0,1,209.38,66.38ZM188.74,64a.5.5,0,0,1-.37-.16,25.44,25.44,0,0,1-3-4.09.5.5,0,1,1,.86-.51,24.39,24.39,0,0,0,2.93,3.93.5.5,0,0,1-.37.84Zm-75-2.45a.5.5,0,0,1-.42-.24,47.89,47.89,0,0,0-2.83-4.07.5.5,0,1,1,.79-.61,48.56,48.56,0,0,1,2.89,4.16.5.5,0,0,1-.42.76Zm100-4.11-.14,0a.5.5,0,0,1-.34-.62,23.53,23.53,0,0,0,.86-4.82.5.5,0,0,1,1,.07,24.58,24.58,0,0,1-.9,5A.5.5,0,0,1,213.75,57.41ZM69.44,56.54a.5.5,0,0,1-.47-.68,17.76,17.76,0,0,1,.74-1.64,16.63,16.63,0,0,1,1.83-2.82.5.5,0,1,1,.78.63,15.65,15.65,0,0,0-1.72,2.65c-.26.51-.49,1-.7,1.55A.5.5,0,0,1,69.44,56.54ZM183.71,55.4a.5.5,0,0,1-.48-.35q-.12-.37-.22-.76a17.81,17.81,0,0,1-.62-4.31.5.5,0,0,1,1,0A16.8,16.8,0,0,0,184,54q.1.36.21.72a.5.5,0,0,1-.33.63Zm-76.16-1.75a.5.5,0,0,1-.35-.15,33.78,33.78,0,0,0-3.73-3.22.5.5,0,1,1,.6-.8,34.8,34.8,0,0,1,3.84,3.32.5.5,0,0,1-.35.85Zm-32-4.82a.5.5,0,0,1-.28-.91,20.62,20.62,0,0,1,4.56-2.33.5.5,0,0,1,.35.94,19.61,19.61,0,0,0-4.34,2.22A.5.5,0,0,1,75.6,48.83Zm23.91-1.1a.49.49,0,0,1-.23-.06l-.34-.17a22.84,22.84,0,0,0-4.23-1.57A.5.5,0,0,1,95,45a23.78,23.78,0,0,1,4.42,1.64l.36.18a.5.5,0,0,1-.23.94Zm114.88-.24a.5.5,0,0,1-.49-.42,17.37,17.37,0,0,0-1.5-4.62.5.5,0,0,1,.9-.44,18.4,18.4,0,0,1,1.58,4.88.5.5,0,0,1-.41.58Zm-31-2h-.12a.5.5,0,0,1-.37-.6,20.27,20.27,0,0,1,1.82-4.79.5.5,0,0,1,.88.47,19.23,19.23,0,0,0-1.73,4.56A.5.5,0,0,1,183.43,45.51ZM84.9,45.35a.5.5,0,0,1-.07-1,25.79,25.79,0,0,1,5.1-.2.5.5,0,0,1,.47.53.49.49,0,0,1-.53.47,25.41,25.41,0,0,0-4.9.19Zm125.22-6.79a.5.5,0,0,1-.38-.17,18.33,18.33,0,0,0-3.62-3.25.5.5,0,0,1,.56-.83,19.29,19.29,0,0,1,3.81,3.43.5.5,0,0,1-.38.83Zm-22-1.77a.5.5,0,0,1-.36-.85,15.21,15.21,0,0,1,4.16-3,.5.5,0,0,1,.44.9,14.23,14.23,0,0,0-3.88,2.85A.5.5,0,0,1,188.14,36.79Zm13.77-3.73-.14,0a13.12,13.12,0,0,0-4.77-.52.49.49,0,0,1-.54-.46.5.5,0,0,1,.46-.54,14.12,14.12,0,0,1,5.13.56.5.5,0,0,1-.14,1Z"/><path class="cls-3" d="M6.5,251.46a.5.5,0,0,1-.09-1q1.22-.23,2.44-.5a.5.5,0,1,1,.21,1q-1.22.27-2.46.5Z"/></g></g></svg>