<svg xmlns="http://www.w3.org/2000/svg" viewBox="0 0 1920 1080"><defs><style>.cls-1,.cls-14,.cls-15,.cls-27,.cls-7{fill:none}.cls-5{fill:#fac826}.cls-6{fill:#fff}.cls-7{stroke:#3d292a;stroke-width:25.8px}.cls-14,.cls-15,.cls-27,.cls-7{stroke-miterlimit:10}.cls-8{fill:#e82429}.cls-10,.cls-11{fill:#231f20;opacity:.2;mix-blend-mode:multiply}.cls-11{fill:#68634d;opacity:.51}.cls-13{fill:#3d292a}.cls-14,.cls-15{stroke:#7c4c1f}.cls-14{stroke-width:3.22px}.cls-15{stroke-width:1.61px}.cls-18{fill:#6b382b}.cls-20{fill:#bf8229}.cls-23{fill:#7c493f}.cls-27{stroke:#422622;stroke-width:5.65px}.cls-32{fill:#e63d31}.cls-35{fill:#e53e31}.cls-36{fill:#147d4c}</style><clipPath id="clip-path"><path class="cls-1" d="M0 0h1920v1080H0z"/></clipPath><clipPath id="clip-path-2"><path class="cls-1" d="M1237.87 508.14l32.05-117.09 45.31 11.8-35.94 117.16-41.42-11.87z"/></clipPath><clipPath id="clip-path-3"><path class="cls-1" d="M1298.36 402c2.89-31.8 9.63-66.07 28.06-92.86 11.48-16.69 56.5-49.7 65.28-13.18 8 33.4-35.08 37.06-56.87 30.11-24.33-7.77-44.95-24.67-58.72-46-28.72-44.55-28.44-103.31 1.36-147.2 31.9-47 106.51-91.9 157.71-47.18 35.35 30.88 39.67 84.05 77.78 113.13 36.25 27.66 95 23.27 108.46-26 8.13-29.84-7.38-79.61-44.34-81.22-32.35-1.41-50.74 41-60.78 65.33-19.62 47.66-31.88 101.86-23.39 153.25 9.27 56.13 51.48 108.19 111 112 9.08.57 9-13.56 0-14.13-68.44-4.36-101.26-76.05-99.53-136.72 1.25-43.8 14-91.29 34.7-130.21 6.79-12.76 17.67-33 33.78-35.26 21.45-3.07 35.27 26.39 36.67 43.55 2 23.85-11.27 47.39-35.84 52.13-32.38 6.25-60.35-15.82-76.34-41.73-25.76-41.76-39.35-94.84-95-105.27-52.39-9.82-107.24 28.37-136 69.52-28.18 40.28-33.3 93.12-15.07 138.57 17.13 42.73 59.26 83.05 108.18 81.55 22.64-.7 43.56-13.65 46.53-37.41 2.48-19.86-10.44-38-30.61-40.77-25.33-3.41-49.27 17.81-62.2 37.47-19 28.9-25.94 64.71-29 98.57-.83 9 13.31 9 14.12 0z"/></clipPath><clipPath id="clip-path-4"><circle cx="1457.76" cy="807.03" r="72.73"/></clipPath><clipPath id="clip-path-5"><circle class="cls-1" cx="1469.52" cy="795.28" r="72.73"/></clipPath></defs><g style="isolation:isolate"><g clip-path="url(#clip-path)" id="Layer_1" data-name="Layer 1"><path fill="transparent" d="M-7.15-7.43h1934.3v1094.85H-7.15z"/><path class="cls-5" d="M1290.44 734.06a381.16 381.16 0 0 0 38.83-168.14c0-211.44-171.4-382.85-382.85-382.85S563.58 354.48 563.58 565.92a381.16 381.16 0 0 0 38.83 168.14z"/><path class="cls-6" d="M584.33 925.73a28 28 0 0 1 9.58 1.6 20.83 20.83 0 0 1 7.76 4.86 22.57 22.57 0 0 1 5.16 8.17 32.63 32.63 0 0 1 1.86 11.58 35.31 35.31 0 0 1-1.45 10.17 23 23 0 0 1-4.49 8.39 20.77 20.77 0 0 1-7.88 5.61 27.78 27.78 0 0 1-11.5 1.89 24.15 24.15 0 0 1-9.47-2.07 20.68 20.68 0 0 1-7.13-5.35 23.9 23.9 0 0 1-4.49-8 31.28 31.28 0 0 1-1.56-10.1 34.34 34.34 0 0 1 1.26-9.65 24.42 24.42 0 0 1 4.46-8.32 30.33 30.33 0 0 1 3.26-3.51 21 21 0 0 1 4-2.78 20.12 20.12 0 0 1 4.82-1.86 23.51 23.51 0 0 1 5.81-.63zm1 46.48a15.89 15.89 0 0 0 7.5-1.67 15.34 15.34 0 0 0 5.27-4.42 18.55 18.55 0 0 0 3.08-6.27 26.26 26.26 0 0 0 1-7.24 27.24 27.24 0 0 0-1.34-8.91 19.09 19.09 0 0 0-3.68-6.5 15.07 15.07 0 0 0-5.57-4 18 18 0 0 0-6.94-1.34 22.64 22.64 0 0 0-4.49.38 11.73 11.73 0 0 0-3.16 1.07 11.18 11.18 0 0 0-2.41 1.71q-1.08 1-2.19 2.19a17.47 17.47 0 0 0-1.71 2.08 17.8 17.8 0 0 0-1.67 3 22.23 22.23 0 0 0-1.3 4.24 27.78 27.78 0 0 0-.52 5.64 24.48 24.48 0 0 0 1.45 8.8 18.13 18.13 0 0 0 3.9 6.24 15.7 15.7 0 0 0 5.75 3.71 20.2 20.2 0 0 0 7.07 1.29zM633.41 972.06a13 13 0 0 0 5.83-1 11.93 11.93 0 0 0 3.27-2.33q1.22-1.31 2-2.34a2.58 2.58 0 0 1 2.15-1c1.68 0 2.53.89 2.53 2.67a6 6 0 0 1-.9 2.75 11.14 11.14 0 0 1-2.78 3.19 16.37 16.37 0 0 1-4.86 2.64 21 21 0 0 1-7.06 1.07 22.41 22.41 0 0 1-8.13-1.37 15.57 15.57 0 0 1-9.46-10 24.52 24.52 0 0 1-1.19-7.87 29.32 29.32 0 0 1 1.15-8.5 18.84 18.84 0 0 1 3.45-6.61 15.35 15.35 0 0 1 5.79-4.3 20.22 20.22 0 0 1 8.17-1.53 18.53 18.53 0 0 1 7.24 1.27 14.72 14.72 0 0 1 4.94 3.26 12.76 12.76 0 0 1 2.82 4.46 14 14 0 0 1 .89 4.75 3.44 3.44 0 0 1-.67 2.15 3.78 3.78 0 0 1-4.57.23 3.52 3.52 0 0 1-.85-1.56c-.15-.5-.38-1.24-.7-2.23a10.56 10.56 0 0 0-1.6-3 10.12 10.12 0 0 0-3-2.6 9 9 0 0 0-4.68-1.11 10.32 10.32 0 0 0-8.54 3.93c-2.08 2.63-3.12 6.31-3.12 11.07a19 19 0 0 0 .75 5.42 12.9 12.9 0 0 0 2.22 4.41 10.78 10.78 0 0 0 3.68 3 11.28 11.28 0 0 0 5.23 1.08zM661.18 928.48a3.31 3.31 0 0 1 .59-2 3.11 3.11 0 0 1 2.53-.78 2.75 2.75 0 0 1 2.34.78 3 3 0 0 1 .55 1.82v8.53c0 .75.08 1.18.23 1.3a1.4 1.4 0 0 0 .89.19h8.39a2.56 2.56 0 0 1 1.52.52 2.59 2.59 0 0 1 .71 2.16 2.94 2.94 0 0 1-.71 2.3 2.3 2.3 0 0 1-1.52.59h-8.1a1.45 1.45 0 0 0-1 .26 1.54 1.54 0 0 0-.22.93v21.53a4.78 4.78 0 0 0 1 3.35 4.5 4.5 0 0 0 3.42 1.11 4.15 4.15 0 0 0 2.15-.52 4.15 4.15 0 0 1 2.15-.52 2 2 0 0 1 1.82.89 3.71 3.71 0 0 1 .56 2 3.59 3.59 0 0 1-1.71 2.78q-1.71 1.31-5.49 1.3a13.5 13.5 0 0 1-4.94-.78 7.7 7.7 0 0 1-3.19-2.26 9 9 0 0 1-1.75-3.61 20.43 20.43 0 0 1-.52-4.79v-4c0-1.63.05-3.4.07-5.3s0-3.83.08-5.76 0-3.69 0-5.27c0-.89-.39-1.34-1.18-1.34h-3.79c-1.49 0-2.23-.67-2.23-2a2.17 2.17 0 0 1 .49-1.6 3.8 3.8 0 0 1 1.81-.78c2-.39 3.37-.68 4-.85s1-.53 1-1.08zM702.09 937.46a20.79 20.79 0 0 1 9 1.75 16.24 16.24 0 0 1 5.86 4.56 17.61 17.61 0 0 1 3.19 6.35 26.77 26.77 0 0 1 1 7.17A26.42 26.42 0 0 1 720 965a18.57 18.57 0 0 1-3.46 6.5 16.72 16.72 0 0 1-5.9 4.49 19.51 19.51 0 0 1-8.39 1.67 19.75 19.75 0 0 1-8.06-1.52 16.29 16.29 0 0 1-5.79-4.19 18.08 18.08 0 0 1-3.53-6.32 25.21 25.21 0 0 1-1.18-7.87 27.55 27.55 0 0 1 1.11-7.94 17.8 17.8 0 0 1 3.42-6.46A15.94 15.94 0 0 1 694 939a19.59 19.59 0 0 1 8.09-1.54zM702 972a11.85 11.85 0 0 0 5.16-1.08A11.07 11.07 0 0 0 711 968a13 13 0 0 0 2.38-4.42 18 18 0 0 0 .81-5.45q0-7.29-3.11-11a10.73 10.73 0 0 0-8.69-3.72 14 14 0 0 0-4.72.78 9.49 9.49 0 0 0-3.82 2.56 12.59 12.59 0 0 0-2.56 4.57 21.65 21.65 0 0 0-.93 6.8 19.34 19.34 0 0 0 .74 5.42 13.1 13.1 0 0 0 2.23 4.41 10.3 10.3 0 0 0 3.67 3 11.23 11.23 0 0 0 5 1.05zM728.6 925.88a3.5 3.5 0 0 1 .67-2.3 3.11 3.11 0 0 1 2.52-.82 3.23 3.23 0 0 1 2.49.74 3.39 3.39 0 0 1 .63 2.23v16.56c0 .55.17.82.51.82s.64-.3 1-.9a8.19 8.19 0 0 1 1.89-1.93 14.56 14.56 0 0 1 3.71-1.93 19.06 19.06 0 0 1 6.46-.89 16.17 16.17 0 0 1 6.31 1.27 15.17 15.17 0 0 1 5.35 3.71 18.29 18.29 0 0 1 3.68 6 23.5 23.5 0 0 1 1.37 8.35 29.09 29.09 0 0 1-1.26 8.95 18.4 18.4 0 0 1-3.53 6.5 15 15 0 0 1-5.31 3.93 16.27 16.27 0 0 1-6.61 1.34 16.05 16.05 0 0 1-6.31-1 13 13 0 0 1-3.75-2.34 11.68 11.68 0 0 1-2-2.34c-.42-.69-.78-1-1.08-1a.61.61 0 0 0-.41.11 1.08 1.08 0 0 0-.18.45c-.05.22-.11.57-.19 1s-.18 1.1-.33 1.89a6.1 6.1 0 0 1-.63 2c-.23.32-.83.48-1.82.48a4.41 4.41 0 0 1-2.34-.44 2.18 2.18 0 0 1-.63-1.86q0-4.53-.08-16.89t-.13-31.69zM746.86 972a11.85 11.85 0 0 0 5.39-1.11 9.58 9.58 0 0 0 3.56-3.12 13.92 13.92 0 0 0 2-4.72 26.36 26.36 0 0 0 .63-6q0-6.39-3.05-10.25a10.41 10.41 0 0 0-8.68-3.86 12.31 12.31 0 0 0-5.28 1 10.06 10.06 0 0 0-3.71 2.93 13 13 0 0 0-2.23 4.53 21.68 21.68 0 0 0-.74 5.83 20.38 20.38 0 0 0 .78 5.72 14.41 14.41 0 0 0 2.27 4.67 10.46 10.46 0 0 0 3.75 3.16 11.47 11.47 0 0 0 5.31 1.22zM788.52 977.63a20.24 20.24 0 0 1-8-1.44 14.69 14.69 0 0 1-5.61-4.13 17.3 17.3 0 0 1-3.3-6.42 29.85 29.85 0 0 1-1.08-8.28 32.28 32.28 0 0 1 .44-5.19 20.63 20.63 0 0 1 1.86-5.8 15.13 15.13 0 0 1 3.57-4.64 16.71 16.71 0 0 1 5.34-3.12 20.71 20.71 0 0 1 7.13-1.15 18.72 18.72 0 0 1 7.2 1.3 14.54 14.54 0 0 1 8.32 8.62 17.36 17.36 0 0 1 1 6 5.37 5.37 0 0 1-.93 3.53 3.67 3.67 0 0 1-2.93 1.08h-22.8c-.79 0-1.26.16-1.41.49a3.31 3.31 0 0 0-.22 1.37 14.77 14.77 0 0 0 .78 4.9 11.25 11.25 0 0 0 2.3 3.9 10.61 10.61 0 0 0 3.67 2.6 12.09 12.09 0 0 0 4.83.92 11.91 11.91 0 0 0 5.53-1 11 11 0 0 0 3.12-2.33q1.15-1.31 2-2.34a2.69 2.69 0 0 1 2.19-1q2.52 0 2.52 2.67a6.12 6.12 0 0 1-.89 2.75 11.14 11.14 0 0 1-2.78 3.19 16.56 16.56 0 0 1-4.87 2.64 20.91 20.91 0 0 1-6.98.88zm0-34.38a11.72 11.72 0 0 0-4.87.93 11.38 11.38 0 0 0-3.37 2.27 9.44 9.44 0 0 0-2 2.86 7 7 0 0 0-.67 2.71q0 1.26.45 1.56a3.47 3.47 0 0 0 1.71.29h17.73a1.26 1.26 0 0 0 1.23-.63 3.07 3.07 0 0 0 .33-1.45 8.18 8.18 0 0 0-.59-2.93 7.89 7.89 0 0 0-1.86-2.75 10.32 10.32 0 0 0-3.26-2 12.91 12.91 0 0 0-4.83-.86zM834.26 941.7q0 3.1-3.2 3.11c-3.66 0-6.56 1-8.68 3.09s-3.2 4.91-3.2 8.57v18.19c0 1-.27 1.59-.81 1.79a8.56 8.56 0 0 1-2.6.29 10.62 10.62 0 0 1-1.82-.11 1.57 1.57 0 0 1-.93-.44 1.49 1.49 0 0 1-.33-.93v-4.5-5.6-7-7.2-10.2a2.77 2.77 0 0 1 .48-1.82 2.86 2.86 0 0 1 2.12-.56 7.14 7.14 0 0 1 1.82.23 1.24 1.24 0 0 1 .92 1.26l.3 4.68a15.33 15.33 0 0 0 .15 1.63c0 .25.15.37.3.37s.52-.42 1-1.26a17.08 17.08 0 0 1 2-2.82 13.8 13.8 0 0 1 3.3-2.82 9.34 9.34 0 0 1 5-1.27 4.38 4.38 0 0 1 3.12.93 3.23 3.23 0 0 1 1.06 2.39zM858.91 976.74a3.64 3.64 0 0 1-2.64-.89 3.12 3.12 0 0 1-.93-2.37 6.61 6.61 0 0 1 .26-1.9 5.3 5.3 0 0 1 1-1.78 13.27 13.27 0 0 1 2.3-2c1-.74 2.39-1.64 4.12-2.67q6.47-3.95 10.77-6.8a47.18 47.18 0 0 0 6.83-5.31 15.86 15.86 0 0 0 3.57-4.79 13.17 13.17 0 0 0 1-5.38c0-3.81-1-6.69-3-8.65a10.6 10.6 0 0 0-7.8-2.93 12 12 0 0 0-8.32 2.86q-3.2 2.85-3.86 9a3.31 3.31 0 0 1-1 2.56 3.62 3.62 0 0 1-2.56.93 3.1 3.1 0 0 1-2.45-1 4.23 4.23 0 0 1-.89-2.93 17.32 17.32 0 0 1 1.22-6.42 16.49 16.49 0 0 1 3.6-5.5 17.08 17.08 0 0 1 6-3.82 22.59 22.59 0 0 1 8.28-1.41q8.61 0 13.1 4.23t4.5 11.44a21.4 21.4 0 0 1-.75 5.79 17.83 17.83 0 0 1-2.3 5 22.58 22.58 0 0 1-4 4.53 46.45 46.45 0 0 1-5.86 4.3c-1.54.94-2.9 1.8-4.09 2.56s-2.29 1.48-3.3 2.12l-2.93 1.86c-.94.59-1.93 1.18-3 1.78l-1.41.82c-.45.24-.67.47-.67.66s.19.23.59.23h25.68a3 3 0 0 1 2.16.6 3.18 3.18 0 0 1 .59 2.22 4 4 0 0 1-.59 2.27 2.46 2.46 0 0 1-2.16.85zM918.38 925.43a24 24 0 0 1 7.58 1.12 16.79 16.79 0 0 1 5.64 3.08 13.29 13.29 0 0 1 3.53 4.71 14.76 14.76 0 0 1 1.22 6 12.22 12.22 0 0 1-1.3 6.16 11.25 11.25 0 0 1-2.82 3.38 11.4 11.4 0 0 1-2.82 1.63c-.87.33-1.3.64-1.3.93s.47.57 1.41.82a12.71 12.71 0 0 1 3.12 1.37 10.37 10.37 0 0 1 3.12 3 9.38 9.38 0 0 1 1.41 5.53 13.81 13.81 0 0 1-1.15 5.54 12.64 12.64 0 0 1-3.57 4.64 18.23 18.23 0 0 1-6.12 3.19 29.23 29.23 0 0 1-8.84 1.19 21.43 21.43 0 0 1-8.8-1.6 17.24 17.24 0 0 1-5.6-3.82 13.4 13.4 0 0 1-2.94-4.64 12.69 12.69 0 0 1-.85-4.12 2.29 2.29 0 0 1 .78-1.9 3.15 3.15 0 0 1 2-.63 5.2 5.2 0 0 1 2.08.37c.54.25 1 1 1.34 2.38a12.26 12.26 0 0 0 1.18 3 9.51 9.51 0 0 0 2.23 2.67 11.22 11.22 0 0 0 3.49 1.93 15 15 0 0 0 5 .74 19 19 0 0 0 5.5-.7 10.38 10.38 0 0 0 3.74-1.93 7.62 7.62 0 0 0 2.16-2.9 9.34 9.34 0 0 0 .7-3.67 6.68 6.68 0 0 0-2.74-5.91c-1.84-1.26-4.9-1.89-9.21-1.89h-2.9a2.36 2.36 0 0 1-2.67-2.67 2.33 2.33 0 0 1 .71-1.78 2.62 2.62 0 0 1 1.89-.67h3.49c4 0 6.8-.76 8.54-2.27a8 8 0 0 0 2.6-6.35 10 10 0 0 0-2.75-7.27q-2.74-2.82-8.54-2.82t-8.65 2.67q-2.86 2.67-3.9 8.39a5.82 5.82 0 0 1-1.15 2.67 3.44 3.44 0 0 1-2.71.89 2.92 2.92 0 0 1-2.3-.92 3.85 3.85 0 0 1-.82-2.64 16.22 16.22 0 0 1 1.3-6.39 15.68 15.68 0 0 1 3.86-5.38 18.91 18.91 0 0 1 6.24-3.71 24.09 24.09 0 0 1 8.59-1.42zM945.19 953.28h32.89a3 3 0 0 1 2.26.64 3.12 3.12 0 0 1 .56 2.11 4.94 4.94 0 0 1-.44 2.3c-.3.55-1 .82-2.23.82H945a2.39 2.39 0 0 1-1.9-.66 3.39 3.39 0 0 1-.55-2.16 3.06 3.06 0 0 1 .74-2.41 2.76 2.76 0 0 1 1.9-.64zM990 976.74a3.64 3.64 0 0 1-2.64-.89 3.12 3.12 0 0 1-.93-2.37 6.61 6.61 0 0 1 .26-1.9 5.3 5.3 0 0 1 1-1.78 13 13 0 0 1 2.31-2c1-.74 2.38-1.64 4.12-2.67q6.45-3.95 10.76-6.8a47.18 47.18 0 0 0 6.83-5.31 15.86 15.86 0 0 0 3.57-4.79 13.17 13.17 0 0 0 1-5.38q0-5.71-3-8.65a10.6 10.6 0 0 0-7.8-2.93 12 12 0 0 0-8.32 2.86q-3.18 2.85-3.86 9a3.31 3.31 0 0 1-1 2.56 3.62 3.62 0 0 1-2.56.93 3.1 3.1 0 0 1-2.45-1 4.28 4.28 0 0 1-.89-2.93 17.32 17.32 0 0 1 1.22-6.42 16.37 16.37 0 0 1 3.61-5.5 17 17 0 0 1 6-3.82 22.59 22.59 0 0 1 8.28-1.41q8.61 0 13.11 4.23t4.49 11.44a21.8 21.8 0 0 1-.74 5.79 18.14 18.14 0 0 1-2.31 5 22.83 22.83 0 0 1-4 4.53 46.6 46.6 0 0 1-5.87 4.3c-1.54.94-2.9 1.8-4.09 2.56s-2.29 1.48-3.3 2.12l-2.93 1.86c-.94.59-1.93 1.18-3 1.78l-1.41.82c-.45.24-.67.47-.67.66s.2.23.59.23h25.68a3 3 0 0 1 2.16.6 3.18 3.18 0 0 1 .59 2.22 4 4 0 0 1-.59 2.27 2.46 2.46 0 0 1-2.16.85zM1052 958.85a2 2 0 0 0 1.63-.48 3.93 3.93 0 0 0 .37-2.12v-10.47a2.08 2.08 0 0 1 .6-1.6 3.76 3.76 0 0 1 2.45-.55c2.32 0 3.49.69 3.49 2.08v11.88c0 .54.1.89.29 1a1.71 1.71 0 0 0 1 .22h4.83a2.11 2.11 0 0 1 1.48.48 3.12 3.12 0 0 1 .52 2.19 3.66 3.66 0 0 1-.45 2 1.77 1.77 0 0 1-1.63.7h-4.68a1.13 1.13 0 0 0-1.07.45 2.12 2.12 0 0 0-.26 1.11v9.14a2.25 2.25 0 0 1-.48 1.52c-.32.37-1.2.55-2.64.55a4.37 4.37 0 0 1-2.82-.63 2 2 0 0 1-.67-1.44v-9.21c0-.64-.12-1-.37-1.23a2.57 2.57 0 0 0-1.19-.33q-4.31.07-8.16.07h-11.44a5.16 5.16 0 0 1-3.6-1.18 4 4 0 0 1-1.3-3.12 6.34 6.34 0 0 1 .93-3.38 36.61 36.61 0 0 1 2.71-3.75q3.12-4.15 6.09-8.24 2.59-3.49 5.34-7.39c1.83-2.6 3.47-4.94 4.9-7 .65-1 1.2-1.87 1.67-2.48a8.13 8.13 0 0 1 1.34-1.42 3.54 3.54 0 0 1 1.19-.63 4.69 4.69 0 0 1 1.22-.15 3.45 3.45 0 0 1 2.23.67 2.72 2.72 0 0 1 .82 2.23 5.12 5.12 0 0 1-.22 1.49 9.27 9.27 0 0 1-1 1.93c-.49.79-1.19 1.8-2.08 3s-2.09 2.86-3.6 4.86-3.35 4.45-5.53 7.32-4.78 6.33-7.8 10.39a2.42 2.42 0 0 0-.44.67 1.24 1.24 0 0 0-.08.37.4.4 0 0 0 .45.45zM1080.84 967.09a4.67 4.67 0 0 1 4 2.08 10.12 10.12 0 0 1 1.49 5.94 11.29 11.29 0 0 1-.63 3.79 11.91 11.91 0 0 1-1.64 3.11 9 9 0 0 1-2.15 2.12 4 4 0 0 1-2.19.78 2.38 2.38 0 0 1-1.71-.82 2.26 2.26 0 0 1-.82-1.33 1.86 1.86 0 0 1 .52-1.3 14.43 14.43 0 0 1 1.19-1.12 12.94 12.94 0 0 0 1.19-1.11 1.79 1.79 0 0 0 .52-1.23 1.42 1.42 0 0 0-.71-1.26c-.47-.29-1-.63-1.52-1a6.67 6.67 0 0 1-1.52-1.49 4.53 4.53 0 0 1-.71-2.78 4 4 0 0 1 1.38-3.27 5.06 5.06 0 0 1 3.31-1.11zM1115 976.74a3.64 3.64 0 0 1-2.64-.89 3.12 3.12 0 0 1-.93-2.37 6.61 6.61 0 0 1 .26-1.9 5.3 5.3 0 0 1 1-1.78 13.27 13.27 0 0 1 2.3-2c1-.74 2.39-1.64 4.12-2.67q6.46-3.95 10.77-6.8a47.18 47.18 0 0 0 6.83-5.31 15.86 15.86 0 0 0 3.57-4.79 13.17 13.17 0 0 0 1-5.38c0-3.81-1-6.69-3-8.65a10.6 10.6 0 0 0-7.8-2.93 12 12 0 0 0-8.32 2.86q-3.19 2.85-3.86 9a3.31 3.31 0 0 1-1 2.56 3.62 3.62 0 0 1-2.56.93 3.1 3.1 0 0 1-2.45-1 4.23 4.23 0 0 1-.89-2.93 17.32 17.32 0 0 1 1.22-6.42 16.49 16.49 0 0 1 3.6-5.5 17.08 17.08 0 0 1 6-3.82 22.59 22.59 0 0 1 8.28-1.41q8.61 0 13.1 4.23t4.5 11.44a21.4 21.4 0 0 1-.75 5.79 17.83 17.83 0 0 1-2.3 5 22.58 22.58 0 0 1-4 4.53 46.45 46.45 0 0 1-5.86 4.3c-1.54.94-2.9 1.8-4.09 2.56s-2.29 1.48-3.3 2.12l-2.93 1.86c-.94.59-1.93 1.18-3 1.78l-1.41.82c-.45.24-.67.47-.67.66s.19.23.59.23h25.68a3 3 0 0 1 2.16.6 3.18 3.18 0 0 1 .59 2.22 4 4 0 0 1-.59 2.27 2.46 2.46 0 0 1-2.16.85zM1176.48 925.43a20.57 20.57 0 0 1 8.68 1.75 17.27 17.27 0 0 1 6.43 5.09 22.94 22.94 0 0 1 4 8.16 44 44 0 0 1 0 21.39 26 26 0 0 1-3.87 8.5 18.09 18.09 0 0 1-15.4 7.76 21.21 21.21 0 0 1-9.14-1.89 18.64 18.64 0 0 1-6.75-5.39 24.75 24.75 0 0 1-4.2-8.46 40.36 40.36 0 0 1-1.44-11.21 36.71 36.71 0 0 1 1.48-10.88 22.49 22.49 0 0 1 4.31-8.1 18.26 18.26 0 0 1 6.83-5 22.87 22.87 0 0 1 9.07-1.72zm-.23 46.71a12 12 0 0 0 6-1.49 12.7 12.7 0 0 0 4.42-4.19 20.71 20.71 0 0 0 2.71-6.57 36.52 36.52 0 0 0 .93-8.54 30.21 30.21 0 0 0-1-8.58 21.29 21.29 0 0 0-2.71-5.83 12.28 12.28 0 0 0-4.15-4 13.26 13.26 0 0 0-6.32-1.26 15.55 15.55 0 0 0-6.08 1.12 11.07 11.07 0 0 0-4.57 3.56 17.36 17.36 0 0 0-2.9 6.27 37.32 37.32 0 0 0-1 9.25 32.19 32.19 0 0 0 1 8.31 20 20 0 0 0 2.9 6.39 13.27 13.27 0 0 0 4.6 4.12 12.93 12.93 0 0 0 6.17 1.44zM1206.7 976.74q-3.2 0-3.2-2.89t3.27-3h13.74a1.05 1.05 0 0 0 1.19-1.19v-10.78-6.9V937.45c0-.69-.3-1-.89-1a1.94 1.94 0 0 0-1.08.49 10.66 10.66 0 0 1-1.85 1 17.44 17.44 0 0 1-3.16 1 22.7 22.7 0 0 1-5 .44 6 6 0 0 1-3.45-.89 3.11 3.11 0 0 1-1.3-2.75c0-2 .94-3 2.82-3h.75l.55.08.67.07h1.23a14.88 14.88 0 0 0 6.12-1 12.7 12.7 0 0 0 3.38-2.23c.84-.82 1.59-1.56 2.23-2.23a3.63 3.63 0 0 1 2.75-1 3.71 3.71 0 0 1 2.26.59 2.78 2.78 0 0 1 .78 2.3v40.03a2 2 0 0 0 .19 1q.18.3.78.3h8.31a2.7 2.7 0 0 1 3 3.05 3.34 3.34 0 0 1-.6 2.15c-.39.5-1.23.74-2.52.74zM1265.35 925.43a22.54 22.54 0 0 1 7.62 1.19 16.66 16.66 0 0 1 5.53 3.2 13.36 13.36 0 0 1 3.38 4.67 16.13 16.13 0 0 1 .14 11.62 11.5 11.5 0 0 1-2.15 3.27 10 10 0 0 1-2.15 1.71c-.67.37-1 .78-1 1.22s.42.77 1.26 1.12a13.32 13.32 0 0 1 2.78 1.63 10.17 10.17 0 0 1 4 8.91 12.31 12.31 0 0 1-1.12 5.2 11.9 11.9 0 0 1-3.45 4.34 17.6 17.6 0 0 1-5.9 3 28.66 28.66 0 0 1-8.47 1.11 33.44 33.44 0 0 1-9.28-1.11 18.79 18.79 0 0 1-6.16-2.93 10.63 10.63 0 0 1-3.41-4.27 12.89 12.89 0 0 1-1-5.13 11.71 11.71 0 0 1 1.26-5.94 10.88 10.88 0 0 1 2.82-3.3 12.17 12.17 0 0 1 2.82-1.63q1.26-.5 1.26-.93c0-.4-.33-.81-1-1.23a11.37 11.37 0 0 1-2.15-1.82 12.24 12.24 0 0 1-2.16-3.3 13.55 13.55 0 0 1-1-5.68 14.53 14.53 0 0 1 1.19-5.9 13.6 13.6 0 0 1 3.42-4.72 15.82 15.82 0 0 1 5.49-3.15 22.18 22.18 0 0 1 7.43-1.15zm.3 46.86q6.84 0 9.77-2.3a7.31 7.31 0 0 0 2.93-6 7.79 7.79 0 0 0-2.86-6.35q-2.87-2.34-9.69-2.34t-10.13 2.31a7.44 7.44 0 0 0-3.23 6.45 6.83 6.83 0 0 0 3.49 6c2.32 1.48 5.56 2.23 9.72 2.23zm0-22.13q5.56 0 8.21-2.64a9.89 9.89 0 0 0 2.63-7.31 9.09 9.09 0 0 0-.67-3.45 8.34 8.34 0 0 0-2-3 10.27 10.27 0 0 0-3.38-2.12 13 13 0 0 0-4.79-.82 13.52 13.52 0 0 0-4.86.82 10.58 10.58 0 0 0-3.53 2.16 8.91 8.91 0 0 0-2.15 3.11 9.5 9.5 0 0 0-.74 3.72 9.31 9.31 0 0 0 2.59 6.94c1.74 1.74 4.63 2.59 8.69 2.59z"/><path id="SMASHING" class="cls-6" d="M1516.5 619.69a17.79 17.79 0 0 1 33.54-8.23l-6.58 2.11a11 11 0 1 0-.73 13.31l-3.91.63-4.67-4.73 10.17-1.64 10.11-1.64-1.68 10.14-1.66 10.17-4.7-4.75.45-2.75a17.78 17.78 0 0 1-30.34-12.62zm-205.5 4.9a11.43 11.43 0 0 0 1.17 5.55 10.36 10.36 0 0 0 3.24 3.83 13.53 13.53 0 0 0 4.75 2.19 23 23 0 0 0 11.81-.06 14 14 0 0 0 4.53-2.29 9.46 9.46 0 0 0 2.75-3.55 10.57 10.57 0 0 0 .92-4.42 8.37 8.37 0 0 0-1.23-4.76 9.53 9.53 0 0 0-2.92-3 11.89 11.89 0 0 0-3.41-1.62 21.21 21.21 0 0 0-2.69-.73l-5.29-1.38a18.52 18.52 0 0 1-3.15-1.07 3.52 3.52 0 0 1-1.53-1.16 3.45 3.45 0 0 1-.37-1.68 3.51 3.51 0 0 1 .47-1.84 4.84 4.84 0 0 1 1.23-1.2 4.9 4.9 0 0 1 1.68-.67 9.84 9.84 0 0 1 1.88-.21 12.65 12.65 0 0 1 2.56.27 7.07 7.07 0 0 1 2.17.82 4.67 4.67 0 0 1 1.43 1.61 6 6 0 0 1 .67 2.59h7.4a10.39 10.39 0 0 0-1.17-5.1 9.91 9.91 0 0 0-3-3.52 12.35 12.35 0 0 0-4.51-1.94 20.12 20.12 0 0 0-5.17-.65 17.42 17.42 0 0 0-4.64.63 12.22 12.22 0 0 0-4.19 1.95 9.71 9.71 0 0 0-3 3.28 10.29 10.29 0 0 0-.28 8.7 9.22 9.22 0 0 0 2.4 2.78 12.28 12.28 0 0 0 3.29 1.83 32.3 32.3 0 0 0 3.78 1.17c1.29.37 2.52.69 3.74 1a23.55 23.55 0 0 1 3.29 1 7 7 0 0 1 2.34 1.47 3 3 0 0 1 .88 2.3 3.37 3.37 0 0 1-.63 2.2 6.81 6.81 0 0 1-1.71 1.31 7.79 7.79 0 0 1-2.19.64 16.73 16.73 0 0 1-2.18.13 12.41 12.41 0 0 1-2.93-.32 7.68 7.68 0 0 1-2.46-1.11 5.77 5.77 0 0 1-1.65-2 6.06 6.06 0 0 1-.64-2.94zm84.7-14.47l4.37 12.73h-9zm-16.88 25.68l.06-34.28h-10.74l-7.76 23.83-8.12-23.87h-10.72l-.07 34.71h7.14l.16-24.32 8.42 24.34h5.91l8.64-24.58v24.6H1386.36l2.74-7.71h13l2.65 7.72h7.9l-12.91-34.73h-7.81zm31.38-11a11.73 11.73 0 0 0 1.15 5.55 10.93 10.93 0 0 0 3.26 3.83 13.34 13.34 0 0 0 4.73 2.19 21.93 21.93 0 0 0 5.58.75 22.25 22.25 0 0 0 6.23-.79 13.69 13.69 0 0 0 4.53-2.31 10 10 0 0 0 2.8-3.55 10.67 10.67 0 0 0 .91-4.41 8.26 8.26 0 0 0-1.27-4.77 9.74 9.74 0 0 0-2.88-3 12.58 12.58 0 0 0-3.44-1.62 19.89 19.89 0 0 0-2.68-.73l-5.31-1.38a19.88 19.88 0 0 1-3.13-1.07 3.61 3.61 0 0 1-1.52-1.16 3.24 3.24 0 0 1-.37-1.68 3.47 3.47 0 0 1 .48-1.84 4.39 4.39 0 0 1 1.21-1.18 4.76 4.76 0 0 1 1.74-.7 9.14 9.14 0 0 1 1.82-.19 12 12 0 0 1 2.58.27 5.55 5.55 0 0 1 2.1.81 3.59 3.59 0 0 1 1.44 1.62 5 5 0 0 1 .7 2.59h7.39a10.32 10.32 0 0 0-1.15-5.11 9.38 9.38 0 0 0-3.05-3.5 12.55 12.55 0 0 0-4.47-1.95 20.1 20.1 0 0 0-5.23-.65 16.53 16.53 0 0 0-4.62.63 12 12 0 0 0-4.2 1.94 10 10 0 0 0-3 3.27 9 9 0 0 0-1.13 4.64 7.92 7.92 0 0 0 3.25 6.86A14.16 14.16 0 0 0 1418 620a32.74 32.74 0 0 0 3.79 1.17c1.23.36 2.5.69 3.73 1a28.93 28.93 0 0 1 3.29 1 7.23 7.23 0 0 1 2.34 1.48 3 3 0 0 1 .93 2.29 3.45 3.45 0 0 1-.69 2.21 5.78 5.78 0 0 1-1.69 1.31 8.51 8.51 0 0 1-2.21.65 16.83 16.83 0 0 1-2.18.13 11.65 11.65 0 0 1-2.91-.34 7 7 0 0 1-2.44-1.11 6 6 0 0 1-1.69-2 6.19 6.19 0 0 1-.62-3zm30.45 11.57h7.64v-15h14.07v15h7.61v-34.71h-7.6v13.3h-14.07v-13.3h-7.65zm32.79.06h7.64l.07-34.69h-7.65zm11.11 0h7.17l.12-23.21 14.38 23.25h7.62l.06-34.71h-7.13l-.13 23.29-14.47-23.31h-7.56z"/><path class="cls-6" d="M1297.82 651.79l-13.45-58.68a8.9 8.9 0 0 0-10.61-6.67l-9.91 2.26c1.13.2 2.26.39 3.36.65l5.55-1.27a8.84 8.84 0 0 1 10.57 6.67l5 21.64c-2 4.12-6.14 11-12.29 15.19a25.85 25.85 0 0 1 3.78 3.76 23.83 23.83 0 0 1 4.85 15.09 22.78 22.78 0 0 1-4.75 14.52l11.23-2.57a8.87 8.87 0 0 0 6.67-10.59zM1225.64 668.5l7.06-15.67a31.25 31.25 0 0 0 19.93 7c7.71 0 11.53-2.7 11.55-8.16a10.14 10.14 0 0 0-3.44-7.91c-2.31-2-6.84-4.46-13.5-7.27A55.79 55.79 0 0 1 1237 631c-8 2.17-14.82 7.61-19.29 12.91l-7.45-32.53a8.84 8.84 0 0 1 6.66-10.58l12.89-2.94a23.23 23.23 0 0 1 1.66-1.81l-16.4 3.79a8.83 8.83 0 0 0-6.67 10.59l13.47 58.66a8.85 8.85 0 0 0 10.58 6.64l6.75-1.53-.55-.11a68.41 68.41 0 0 1-13.01-5.59z"/><path class="cls-6" d="M1225.46 611.13a20.48 20.48 0 0 1 4.35-13.22l-12.89 2.94c-6 1.4-7.77 5.57-6.66 10.58l7.45 32.53c4.47-5.3 11.29-10.74 19.29-12.91-7.69-5.41-11.54-12.05-11.54-19.92zM1274.27 609.24c-4.29-3.67-10.29-5.53-18-5.54-6.87 0-10.33 2.7-10.34 8.19 0 2.15 1.13 4.08 3.39 5.81s7.05 4.1 14.47 7.06a44.6 44.6 0 0 1 12.23 6.82c6.15-4.15 10.27-11.07 12.29-15.19l-5-21.64c-1-4.48-4.59-8-10.57-6.67l-5.55 1.27A54.51 54.51 0 0 1 1280 594zM1329.93 652.18a5.74 5.74 0 0 0-1.34-1.47 6.33 6.33 0 0 0-1.78-.94 6.74 6.74 0 0 0-2-.3 7 7 0 0 0-3.32.71 6.87 6.87 0 0 0-2.28 2 9.46 9.46 0 0 0-1.31 2.71 11 11 0 0 0-.42 3.13 10.73 10.73 0 0 0 .41 3.13 9 9 0 0 0 1.31 2.74 6.78 6.78 0 0 0 2.26 1.95 7.39 7.39 0 0 0 3.32.74 6 6 0 0 0 2.46-.5 5.3 5.3 0 0 0 1.86-1.32 6.09 6.09 0 0 0 1.3-2 8.27 8.27 0 0 0 .63-2.43h1.84a10.43 10.43 0 0 1-.86 3.24 7.36 7.36 0 0 1-1.71 2.45 7.06 7.06 0 0 1-2.42 1.56 9.39 9.39 0 0 1-3.11.53 9.13 9.13 0 0 1-4-.84 8 8 0 0 1-2.86-2.23 10.14 10.14 0 0 1-1.74-3.21 14.52 14.52 0 0 1-.52-3.86 14.21 14.21 0 0 1 .54-3.82 11.06 11.06 0 0 1 1.74-3.23 8.1 8.1 0 0 1 2.87-2.19 8.82 8.82 0 0 1 4-.82 8.7 8.7 0 0 1 2.72.4 7.53 7.53 0 0 1 2.38 1.21 7.14 7.14 0 0 1 1.77 2 6.1 6.1 0 0 1 .91 2.7h-1.82a7.35 7.35 0 0 0-.83-2.04zM1342 654.2a10 10 0 0 1 1.72-3.23 7.83 7.83 0 0 1 2.86-2.21 9.31 9.31 0 0 1 4-.82 9 9 0 0 1 4 .84 8.08 8.08 0 0 1 2.82 2.22 8.68 8.68 0 0 1 1.73 3.24 13.26 13.26 0 0 1 0 7.66 8.3 8.3 0 0 1-1.75 3.21 8.08 8.08 0 0 1-2.82 2.21 10 10 0 0 1-8 0 7.73 7.73 0 0 1-2.85-2.22 9.23 9.23 0 0 1-1.72-3.22 13.61 13.61 0 0 1 0-7.66zm1.7 7a7.75 7.75 0 0 0 1.28 2.74 6.33 6.33 0 0 0 2.29 2 7 7 0 0 0 3.32.73 6.81 6.81 0 0 0 3.25-.72 6.16 6.16 0 0 0 2.28-1.93 8.2 8.2 0 0 0 1.3-2.75 11.47 11.47 0 0 0 .43-3.13 11.08 11.08 0 0 0-.43-3.12 7.38 7.38 0 0 0-1.28-2.73 6.14 6.14 0 0 0-2.29-1.94 6.5 6.5 0 0 0-3.22-.74 6.82 6.82 0 0 0-3.34.72 6.57 6.57 0 0 0-2.29 1.94 7.91 7.91 0 0 0-1.28 2.72 10.75 10.75 0 0 0-.48 3.13 10.45 10.45 0 0 0 .48 3.04zM1371.46 648.39l11.28 16.44V648.4h1.87v19.42h-2.09l-11.29-16.43v16.42h-1.81v-19.4zM1407.68 648.46V650h-10.48v7h9.32v1.57h-9.33v9.26h-1.84v-19.4zM1430.14 648.5v1.57h-11.5v7h10.79v1.56h-10.79v7.67h11.68v1.58h-13.55v-19.41zM1448.56 648.54a9.24 9.24 0 0 1 2.28.29 5.41 5.41 0 0 1 1.88.92 4.5 4.5 0 0 1 1.28 1.57 5.29 5.29 0 0 1 .48 2.27 5.43 5.43 0 0 1-1 3.21 4.39 4.39 0 0 1-2.81 1.75v.05a4.47 4.47 0 0 1 1.56.51 3.06 3.06 0 0 1 1 .93 4.08 4.08 0 0 1 .57 1.34 7 7 0 0 1 .21 1.6c0 .32 0 .72.08 1.19s0 1 0 1.43a13.14 13.14 0 0 0 .31 1.37 2.34 2.34 0 0 0 .47 1h-2.06a2.32 2.32 0 0 1-.23-.66c-.07-.28-.13-.54-.18-.84a5.59 5.59 0 0 0 0-.81v-.71c-.06-.7-.08-1.38-.18-2.05a5.59 5.59 0 0 0-.47-1.82 3.13 3.13 0 0 0-3.21-1.74h-7v8.62h-1.85v-19.41zm-.15 9.23a6 6 0 0 0 1.61-.27 4 4 0 0 0 1.36-.75 3.61 3.61 0 0 0 .89-1.19 3.43 3.43 0 0 0 .36-1.57 4 4 0 0 0-1-2.84 4.42 4.42 0 0 0-3.19-1h-6.9v7.66zM1478 648.6v1.57h-11.54v7h10.81v1.56h-10.82v7.69h11.69V668h-13.54v-19.39zM1489.59 648.62l11.26 16.44h.09v-16.41h1.81v19.4h-2.07l-11.26-16.44h-.09v16.41h-1.84v-19.41zM1526.88 652.56a6.13 6.13 0 0 0-1.38-1.48 6.27 6.27 0 0 0-1.78-.92 6.17 6.17 0 0 0-2-.31 6.82 6.82 0 0 0-3.34.72 6.34 6.34 0 0 0-2.27 1.95 7.56 7.56 0 0 0-1.3 2.71 10.13 10.13 0 0 0-.45 3.13 10.76 10.76 0 0 0 .44 3.13 7.62 7.62 0 0 0 1.3 2.74 6.33 6.33 0 0 0 2.24 1.95 7.27 7.27 0 0 0 3.35.75 6 6 0 0 0 2.44-.49 5.27 5.27 0 0 0 1.84-1.34 5.64 5.64 0 0 0 1.28-2 7.23 7.23 0 0 0 .66-2.43h1.82a9.84 9.84 0 0 1-.84 3.23 7.08 7.08 0 0 1-1.7 2.45 6.59 6.59 0 0 1-2.42 1.55 8.67 8.67 0 0 1-3.08.54 9.25 9.25 0 0 1-4-.84 8.11 8.11 0 0 1-2.87-2.22 9.44 9.44 0 0 1-1.71-3.23 13 13 0 0 1 0-7.65 9.85 9.85 0 0 1 1.73-3.23 7.84 7.84 0 0 1 2.87-2.21 8.74 8.74 0 0 1 4-.82 8.29 8.29 0 0 1 2.69.41 7.57 7.57 0 0 1 2.37 1.2 6.93 6.93 0 0 1 1.8 2 6.69 6.69 0 0 1 .9 2.7h-1.81a7.42 7.42 0 0 0-.78-1.99zM1552.82 648.75v1.55h-11.57v7h10.81v1.56h-10.82v7.68h11.7v1.56h-13.54v-19.41zM912.11 162.15c.7.27 1.44.52 2.19.77 3.75.85 7.42 2 11.23 2.59 1.07.19 2.16.31 3.24.44 10.44-.85 20.8-2.69 31.18-4.27.44-1.24.92-2.49 1.47-3.71-1.5-.42-3-.85-4.5-1.21-5.56-1.34-11.16-2.26-16.81-3.06a51.46 51.46 0 0 1-14.74-4.33c-7 3.53-14.07 6.72-21.19 9.61 2.63 1.08 5.27 2.15 7.93 3.17z"/><path class="cls-7" d="M1020.58 489.16s162.21 141.12 240.93-38"/><path class="cls-8" d="M1255.28 468.4c1.11 9.42 3.29 25.78 13.47 29.87 19.62 7.94 9.06-25.94 6.47-35.84 5.94 11.58 12.08 23.12 19.75 33.67 4.09 5.63 8.31 11.41 13.84 15.73 4 3.13 14.34 9.55 18.77 3.77s-3.34-17.61-6.5-22.5c-8.88-13.72-24-24.77-39.91-28.76 12 3 24.06 5.79 36.27 7.82a178.79 178.79 0 0 0 23.41 2.64c6.06.2 15.07.85 20-3.64 13.89-12.68-25.84-20.52-32.06-21.77-24.36-4.88-43.46-2.76-67.8 1.06l-1.73.27c-1.88-12.15-6.82-50.82-24.11-50.6-22.47 1 5.33 50.34 17.27 56.64z"/><path class="cls-7" d="M821.34 531.91s-137 165.69-243.9 1.8"/><path class="cls-8" d="M586.4 549.71c.45 9.48 1 26-8.42 31.67-18.06 11-13.17-24.11-12.22-34.3-4 12.39-8.15 24.78-14 36.44-3.12 6.22-6.34 12.62-11.09 17.78-3.44 3.73-12.59 11.75-17.9 6.78s.42-17.92 2.74-23.26c6.52-15 19.66-28.36 34.69-34.89-11.34 5-22.8 9.64-34.51 13.64A178.35 178.35 0 0 1 503 570c-5.95 1.2-14.73 3.31-20.32-.32-15.76-10.24 22.16-24.47 28.08-26.71 23.24-8.79 42.43-9.81 67.07-10h1.75c-.13-12.29-1.56-51.25 15.53-53.85 22.34-2.65 3 50.53-7.8 58.7z"/><path class="cls-6" d="M739.61 428.82c1-4.41 5.92-112.53 5.92-112.53l250.69-79.17s76 63.77 76.89 70 11 114.23 10.55 118-63.08 64.09-63.08 64.09L855 522.08l-74.31-41.57z"/><path fill="#faf3ce" d="M855.02 522.08l5.89 193.43 154.17-16.96-11.99-184.4-148.07 7.93z"/><path class="cls-10" d="M968.33 546.71l20.78 153.21 19.17-2.33-20.15-154.67-19.8 3.79z"/><path class="cls-11" d="M968.74 540.35l1.72 53.78-31.59-39.29-22.09 42.33-12.83-46.1-3.1.86 15.01 53.97 22.07-42.29 9.51 142.44 3.22-.21-9.55-143.07 32.88 40.9-2.03-63.43-3.22.11z"/><path class="cls-11" d="M958.93 608a9.66 9.66 0 1 0 10.07 9.17 9.66 9.66 0 0 0-10.07-9.17zm.76 16.08a6.44 6.44 0 1 1 6.13-6.74 6.45 6.45 0 0 1-6.13 6.72zM960.34 637.72a9.67 9.67 0 1 0 10.1 9.2 9.69 9.69 0 0 0-10.1-9.2zm.75 16.09a6.44 6.44 0 1 1 6.13-6.74 6.46 6.46 0 0 1-6.13 6.74zM961.89 670.69a9.66 9.66 0 1 0 10.11 9.2 9.66 9.66 0 0 0-10.11-9.2zm.76 16.08a6.44 6.44 0 1 1 6.13-6.73 6.43 6.43 0 0 1-6.13 6.73zM858.49 604.23l30 .46.68 14.41-31.75.64.06 3.23 31.85-.65 1.22 25.8a23.71 23.71 0 0 1-4.61 11.3c-5.49 7.23-14.59 10.4-27 9.44l-.25 3.22a55.18 55.18 0 0 0 6.76.12c8-.38 14.51-2.71 19.45-7a26.5 26.5 0 0 0 8.9-17.07l-2.2-46.66-33-.51z"/><path class="cls-10" d="M882.86 712.48l17.4.27-18.31-157.84-19.67-2.34 20.58 159.91z"/><path fill="#723d2e" d="M877.12 703.92l136.84-15.36 4.4 30.47-140.97 11.6-.27-26.71z"/><path class="cls-13" d="M796 518.93s-2.07 150.07 4 219.51l85.44-7.69-17.39-209.29z"/><path class="cls-14" d="M810.97 668.88l58.52-3.93 3.54 50.31-63.86 2.43 1.8-48.81z"/><circle class="cls-15" cx="841.44" cy="676.73" r="5.3"/><path class="cls-15" d="M795.71 544.35l46.36 61.94 30.49-46.53M812.13 615.02l50.07 16.2M811.19 631.89l50.06 16.2M810.25 689c.4-.44 60.16-2.5 60.16-2.5M842.02 716.42l-.37-29.28"/><path class="cls-13" d="M1046 496.57s32.54 147.85 41.58 216.93l-82.53 7-28.89-205.87z"/><path class="cls-14" d="M1063.76 646.22l-57.98 8.81 7.42 49.89 62.88-11.44-12.32-47.26z"/><circle class="cls-15" cx="1035.71" cy="660.47" r="5.3"/><path class="cls-15" d="M1051.73 521.33l-31.87 70.5-39.83-38.84M1050.98 593.88l-45.38 26.64M1055.55 610.14l-45.38 26.64M1068.81 665.66c-.49-.35-59.29 10.56-59.29 10.56M1043.72 699.34l-5.97-28.67"/><ellipse class="cls-8" cx="904.27" cy="354.96" rx="14.34" ry="21.33" transform="rotate(-19.72 904.5 355.003)"/><path class="cls-8" d="M948.73 186.65a95.6 95.6 0 0 1-21.55 7l1.38.18a98.32 98.32 0 0 0 20.22-7.15z"/><path class="cls-10" d="M803.26 513.46s155.81 141.88 279.78 172l3.8 23.93S937 688.53 784.36 523.92z"/><path d="M814.87 508.47S959 646.37 1083 676.46l3.51 27.71S948.58 683.54 796 518.93z" fill="#5c302a"/><path stroke="#929497" stroke-width="10.37" stroke-miterlimit="10" fill="none" d="M910.18 620.09l15.77-20.3 14.22 10.59-15.1 18.63-14.89-8.92z"/><path class="cls-8" d="M1147.17 333.9s-15-41.34-65.29-58.81c0 0 18.19-4.73 24.35-2.31 0 0-20.93-18.63-54.7-21.27l-7.72-18.5c-18 4-37.16 2-57.78-6.61a56.9 56.9 0 0 1-27.72-25c-4.77-.89-9.48-1.89-14.07-2.87-6.33-1.37-12.79-2.55-19.11-4-2.11.27-2.48.06-.68-.17l-.38-.09c-19.16 3-37.81-1.06-53.46-13.09-7 3-14.31 6.43-22 10.32a89.47 89.47 0 0 1 15-16.45c-1.61-1.6-3.2-3.29-4.73-5.09A110.43 110.43 0 0 0 800 214.24a202.4 202.4 0 0 0-24.4-6.68c0 15.84-6.26 38.28-18.44 48.66a127.4 127.4 0 0 0-10.77 10.38 218.46 218.46 0 0 0-15.42 29.74c-.39-.2-.78-.44-1.16-.66a71.2 71.2 0 0 1-10.92 16.15l-9.18 7.81q5.4 6.24 11.48 12.87s-39.92 44.41-41.85 85.58c0 0 17.6-41.15 31.46-52.83 0 0-45.45 84.45-5.29 130 0 0-6.87-28.35-1.81-42 1.85 10.42 16.22 83.33 59.09 110 0 0-18.73-32.06-22.08-47.77 0 0 27.5 62 125.9 63.16a115.77 115.77 0 0 1-49.86-28.06s133 44.12 213.94-26.49h-.05c.63-.54 1.27-1.09 2-1.69 9.72-8.72 23.37-24.74 32.48-51.14 0 0-.16 28.14-3.49 33.13 0 0 30.32-30.64 31.87-62.77 0 0 1.37 28.28 0 34.14 0 0 31.54-41.56 33.57-88.9 0 0 3.37 16 2.19 19.43 0 0 37.64-28.82-1.82-80.42a27.25 27.25 0 0 1 19.73 8.02zM704.29 451.82a14.87 14.87 0 0 1 .72-1.44s0 .47.15 1.29zm301.21-168.93c7.45-2.67 16.72 4.15 20.69 15.24s1.16 22.25-6.3 24.92-16.72-4.15-20.7-15.24-1.19-22.24 6.31-24.92zm-114.16-48.1c31.31-10.88 75.72 35.06 88.87 72.92s-1.57 77.37-32.88 88.25S880 385 866.81 347.11 860 245.67 891.34 234.79zM759 399.75l-1-9.45s3.66-61.95 46.69-22.22c.04 0-36.39-26.61-45.69 31.67zm259.89 58.17c-44.52 25.22-85.42 34.87-121.95 28.83a124.74 124.74 0 0 1-24-6.46c-65.72-25-91.85-99.4-92.11-100.15a2.19 2.19 0 1 1 4.14-1.42c.24.73 25.76 73.3 89.55 97.49 41 15.57 88.86 8.13 142.2-22.09a2.18 2.18 0 1 1 2.15 3.8zm34.88-116.66c-.66 16.83-10.69 37.62-10.69 37.62s-63-6.66-39.14-22.2 50.51-32.27 49.85-15.42z"/><path class="cls-10" d="M699.92 364s269.24 7.25 343.89-131L715 338s-12.84 16-15.08 26z"/><path class="cls-18" d="M1039.78 196.2c2.83-2.57 3.68 6.11 2.41 2.51-16.94-47.85-55.31-106.47-99.67-133.44-38.23-23.25-65-.44-78.91 35.62-4.49 11.69-9.26 23.7-18 32.69-17.06 17.63-41.76 10.54-62.46 4.81-29-8-62.66-11.25-86.73 6.75-27.28 20.41-31.32 59.92-26.19 93.6A257.23 257.23 0 0 0 693 312s219.7 0 346.78-115.8z"/><path class="cls-13" d="M717.77 254.66s62.35-17.25 39.79-91.65c0-.01 2.61 59.33-39.79 91.65zM902.71 116s16.42 45.1 71.26 23.34c.03.01-39.52.22-71.26-23.34zM1041.12 195.78c.36 1 .72 2 1.07 2.93 1.04 2.95.65-2.34-1.07-2.93zM679.27 277.36A257.16 257.16 0 0 0 693 312s219.67 0 346.75-115.82a1.28 1.28 0 0 1 1.34-.42 292.31 292.31 0 0 0-18.34-39.76C914 251.84 736 273 679.27 277.36z"/><path class="cls-18" d="M541.43 323.62s371.5 116.55 603.64-192.2c0 0-231.63 179.17-603.64 192.2z"/><path class="cls-13" d="M843 163.64s39 44.13 30.58 87.86c.03 0-13.98-64.12-30.58-87.86z"/><path transform="rotate(-6.61 949.214 710.88)" fill="#929497" d="M924.47 693.62h49.6v34.6h-49.6z"/><path class="cls-10" d="M939.14 720.8c-4 2.86-8.28 5.85-12.66 8.86l.15 1.3 49.27-5.71-3.43-29.59c-10.73 8.8-21.93 17.08-33.33 25.14z"/><path class="cls-5" d="M513.74 546.87c5 3.75 14 5.68 20 6.43a55.5 55.5 0 0 0 22.89-2.3C577 544.87 589 527.27 592 506.83c2.41-16.53 3.93-35-.16-51.36-4.81-19.23-17.31-35.75-35.13-44.65a73.65 73.65 0 0 0-15.63-5.75c-8.88-2.11-40.62-6.18-48.83 1.31-5.76 5.57-3.82 20.94-5.6 28.16-3.36 16-15.62 17-30.06 17.79-9.67.14-35.24 2.29-29.46 18.25 4.19 11.85 22.54 12.23 32.21 12.09 1.34.1 2.95.16 4.61.15-11.92.64-30.47 2-30.63 15.51-.11 16.17 27.24 6.8 36.18 5.13-11.26 4.65-28.22 6.79-30.06 22.09-2.69 21.34 26.12 15 38.31 9.17 7.15-3.05 14.36-9.89 21.92-5.45 6.33 3.5 8.11 12.97 14.07 17.6z"/><path class="cls-20" d="M528 470.1c9.76-17.37-14.62-44.32-27.47-23.33-6.47 10.18-3.41 23.75 7.26 29.43 11.77 6.27 17.13.18 20.21-6.1zM531.16 512.8c8.12-14.46-12.18-36.9-22.87-19.42-5.39 8.47-2.84 19.77 6 24.5 9.8 5.21 14.26.14 16.83-5.08z"/><path d="M591.85 455.47c-4.81-19.23-17.31-35.75-35.13-44.65a73.65 73.65 0 0 0-15.63-5.75c-8.88-2.11-40.62-6.18-48.83 1.31-5.76 5.57-3.82 20.94-5.6 28.16-2.78 13.29-11.67 16.25-22.85 17.31a35.36 35.36 0 0 0 22.6-6.67c8.49-6.17 10.32-10.1 21.67-8.29 16.14 3.06 31.61 11.77 41.15 24.94 6.28 9.4 13.54 19.15 25.52 22.27 7.08 1.9 13.54-1.12 19.64-5.29a95.41 95.41 0 0 0-2.54-23.34z" fill="#5e5e5e" opacity=".2"/><path class="cls-20" d="M482.15 476.39s22 12.15 13.73 22.24c-.26.33-.56.65-.87 1z"/><path class="cls-23" d="M1237.87 508.14l32.05-117.09 45.31 11.8-35.94 117.16-41.42-11.87z"/><g clip-path="url(#clip-path-2)"><path stroke="#442621" stroke-width="5.35" stroke-miterlimit="10" fill="none" d="M1261.87 385.79l45.19 75.73 19.39-52.11-91.11 31.15 59.17 89.22 22.6-61.13-98.07 43.21"/></g><path class="cls-23" d="M1298.36 402c2.57-29.8 9-60.42 24.11-86.53A82.76 82.76 0 0 1 1347.7 288c9.46-6.32 21.46-11.27 32.56-6.16 16.46 7.58 14.81 30.77 2 41-10.91 8.75-27.2 8.26-40 5.25a104.26 104.26 0 0 1-34-15C1268.8 286.74 1250 236 1255.6 189.84c3.15-25.75 14.65-50.11 31.57-69.65 17.32-20 40.63-37.48 65.51-46.83 27.43-10.29 58.44-8.17 81.38 11.31 18.15 15.42 28 37.53 38.34 58.44 10.83 21.91 23.12 43.32 43.43 57.79 22.44 16 55.45 22.13 80 7.11 38.09-23.35 35.83-82.89 1.69-108.49-13.36-10-29.84-10.38-43.32-.39-14.32 10.61-23.76 27.06-31.31 42.87-18.78 39.33-31 84.18-32.52 127.69-1.07 30.81 4.19 62.57 19.49 89.64 12.92 22.86 32.75 42.9 56.87 53.73a102.65 102.65 0 0 0 37.25 9.06c9.09.44 9.07-13.69 0-14.13-26.27-1.28-49.76-15.31-66.94-34.67-19.47-21.93-29.56-50.25-32-79.23-2.62-31.23 2.46-62.63 10.88-92.66a340.1 340.1 0 0 1 15.7-44.72c6.89-15.74 15.13-32.66 28.29-44.17 4.64-4.07 10.25-6.89 15.56-6.91a18.88 18.88 0 0 1 7.94 1.76 37.14 37.14 0 0 1 10.31 7.36c14.2 13.74 19.22 35.28 14.12 54.18-6 22.35-25.38 34.68-48.21 33.38-27.5-1.56-48.83-20.56-62.53-43.05-12.57-20.65-20.72-43.77-34.57-63.68-16.12-23.18-39.68-39.27-68.16-42.23-29.57-3.08-57.83 9.46-81.75 25.76-22.3 15.2-41.83 34.9-54.76 58.75a144.12 144.12 0 0 0-17.2 75.14c2.28 48.68 28.41 97.5 73 119.62 23.67 11.73 57.6 19 79.38-.47 15.14-13.56 18.22-38.77 4.72-54.48-7.33-8.54-19.24-12.93-30.36-12-13.6 1.15-25.73 8.35-35.94 17-22 18.7-33.59 47.26-40.27 74.72a295.88 295.88 0 0 0-7 44.59c-.79 9.06 13.35 9 14.12 0zM1613.87 441.71a183.93 183.93 0 0 1 18.07 31.08c.94 2.07 4 .27 3-1.78a183.53 183.53 0 0 0-18.07-31.08c-1.32-1.83-4.39-.07-3.05 1.78zM1634.83 424.84a49.8 49.8 0 0 1 22.57 8.5c1.89 1.28 3.66-1.78 1.79-3a53.65 53.65 0 0 0-24.36-9c-2.25-.26-2.23 3.28 0 3.54zM1631.2 400.9a188.4 188.4 0 0 1 18.86-9c2.07-.86 1.16-4.28-.94-3.41a196.17 196.17 0 0 0-19.7 9.38c-2 1.09-.21 4.14 1.78 3z"/><g clip-path="url(#clip-path-3)"><path class="cls-27" d="M1574.62 428l5.75-36.56-36.07 25.94 24.1-48.72a438.05 438.05 0 0 1-69.86 11.41 108 108 0 0 1 48.31-40.66l-67.29-2.74a182.94 182.94 0 0 1 48.89-34.78l-58.35-25.16a119.08 119.08 0 0 1 43.58-9.14 163.77 163.77 0 0 0-40.51-40.8 126.24 126.24 0 0 1 39.6-1.59l-29.24-19.64M1502.92 153.74a121.76 121.76 0 0 0 47.62 16.72c-14.13-14.5-19.82-35-25-54.57a46.57 46.57 0 0 0 31.53 16.33 106.64 106.64 0 0 1 5.31-49.81 64.92 64.92 0 0 0 3.17 29.13l29.64-30.44c2.17-2.22 6-4.43 7.92-2 1.21 1.55.45 3.78-.35 5.58l-13.67 30.66a106.27 106.27 0 0 1 38.31-8.58 63.12 63.12 0 0 1-28.81 20.91c5.64 4.13 13.08 4.59 19.7 6.83s13.36 8.09 12 14.95a108.75 108.75 0 0 0-28.14 1.29c12.63 12.81 26.07 27.4 26.73 45.38a78.36 78.36 0 0 1-30.31-23.74l-1 49-23.29-35.78c-9.42 11.1-3.76 32.1-16.54 39a57.33 57.33 0 0 1-2.38-36.72 26.06 26.06 0 0 0-16.23 10.32c-1.5 2.11-2.72 4.47-4.72 6.12s-5.13 2.32-7.11.67-1-5.82 1.58-5.66M1472.3 172.22a146.75 146.75 0 0 0 27.58-43.22 287.89 287.89 0 0 0-44.54 13.2 152.1 152.1 0 0 1 30.09-35.6 142.47 142.47 0 0 0-47.28 15.89 167.79 167.79 0 0 0 30.09-59.69 193.73 193.73 0 0 0-44.17 35.55l9.15-33.54c1.61-5.91 1.67-14.52-4.35-15.64-3.59-.66-6.8 2.21-9.18 5a97.14 97.14 0 0 0-15.16 24q-14.52-25.31-29-50.61l-.6 58.52-44.79-38.67a60.44 60.44 0 0 0 11.27 35.75l-43.31-13.69a37.77 37.77 0 0 0 24.84 30.08 54.66 54.66 0 0 0-54.28 8.19 81.64 81.64 0 0 0 44.89-.42c-12.48 24-54.39 18.19-66.67 42.32a98.44 98.44 0 0 0 37.7-1.13 687.46 687.46 0 0 1-56.14 61.2 229.39 229.39 0 0 1 50.69-10.9 330.52 330.52 0 0 0-43.5 54 103.94 103.94 0 0 0 35.37-17.6 128.77 128.77 0 0 0-27 47.57 127.52 127.52 0 0 1 35.78-20.37 330.87 330.87 0 0 0-19.08 52l30.61-25.54"/><path class="cls-27" d="M1346.36 300.52a291.52 291.52 0 0 1-6.12-40.62 246.74 246.74 0 0 0 20.08 24.83c1.06 1.15 2.27 2.36 3.82 2.52 2.92.3 4.7-3.05 5.64-5.83l5.9-17.32c.76-2.22 1.6-4.57 3.42-6.05s5-1.6 6.23.37c1 1.53.49 3.55 0 5.29q-4 13.13-8.68 26.06a71 71 0 0 1 20.27-5.14c1.48-.15 3.12-.21 4.29.71 3 2.33-.54 7.12-4.2 8.08s-8.24 1-10.12 4.27c-1.2 2.11-.71 4.74-.18 7.11l8.16 36.43q-6.55-11-13.47-21.79l-5.55 32.84-10.87-28.14-5.98 26.24a5.21 5.21 0 0 1-1.42 3c-2.23 1.82-5.31-.92-6.63-3.47a43.73 43.73 0 0 1-4.85-18.67c-.06-2.22-.29-5-2.36-5.83s-3.34 3.72-1.18 3.15M1269.82 348.31l48.18 26.34M1272.92 374.83l8.71 3.13 32.48 11.66"/></g><path class="cls-20" d="M405.14 303.15l8.71-5.18 41.51 85.48-50.22-80.3zM356.84 347.73l5.36-8.6 76.11 56.91-81.47-48.31zM337.24 407.04l.92-10.09 93.57 16.58-94.49-6.49z"/><g style="mix-blend-mode:multiply" opacity=".2"><circle cx="1457.76" cy="807.03" r="84.91"/><circle cx="1457.76" cy="807.03" r="72.73"/><g clip-path="url(#clip-path-4)"><g id="layer1"><path id="rect8764" d="M1348.47 729.66h289.71v152.12h-289.71z"/></g><g id="layer4"><path id="rect8767" d="M1348.47 869.54h289.71v12.23h-289.71z"/><path id="rect8769" d="M1348.47 857.31h289.71v12.23h-289.71z"/><path id="rect8771" d="M1348.47 845.08h289.71v12.23h-289.71z"/><path id="rect8773" d="M1348.47 832.85h289.71v12.23h-289.71z"/><path id="rect8775" d="M1348.47 821.38h289.71v11.47h-289.71z"/><path id="rect8777" d="M1348.47 809.92h289.71v11.47h-289.71z"/><path id="rect8779" d="M1348.47 798.45h289.71v11.47h-289.71z"/><path id="rect8781" d="M1348.47 786.99h289.71v11.47h-289.71z"/><path id="rect8783" d="M1348.47 775.52h289.71v11.47h-289.71z"/><path id="rect8785" d="M1348.47 764.05h289.71v11.47h-289.71z"/><path id="rect8787" d="M1348.47 752.59h289.71v11.47h-289.71z"/><path id="rect8791" d="M1348.47 741.12h289.71v11.47h-289.71z"/><path id="rect8793" d="M1348.47 729.66h289.71v11.47h-289.71z"/></g><g id="layer5"><path id="rect8796" d="M1348.47 729.66h116.19v80.26h-116.19z"/></g><g id="layer6"><path id="path8825" d="M1353.32 800.45l3.37-.36 1.29-3.28 1.37 3.24 3.38.27-2.52 2.36.8 3.45-2.93-1.78-2.88 1.86.71-3.46z"/><path id="path8827" d="M1372.44 800.45l3.36-.36 1.29-3.28 1.37 3.24 3.38.27-2.52 2.36.8 3.45-2.93-1.78-2.88 1.86.71-3.46z"/><path id="path8829" d="M1392.31 800.45l3.37-.36 1.28-3.28 1.38 3.24 3.37.27-2.52 2.36.8 3.45-2.93-1.78-2.88 1.86.71-3.46z"/><path id="path8831" d="M1411.42 800.45l3.37-.36 1.28-3.28 1.38 3.24 3.37.27-2.52 2.36.8 3.45-2.93-1.78-2.88 1.86.71-3.46z"/><path id="path8833" d="M1430.53 800.45l3.37-.36 1.28-3.28 1.38 3.24 3.37.27-2.52 2.36.8 3.45-2.93-1.78-2.88 1.86.71-3.46z"/><path id="path8835" d="M1450.41 800.45l3.36-.36 1.29-3.28 1.37 3.24 3.38.27-2.52 2.36.8 3.45-2.93-1.78-2.88 1.86.71-3.46z"/><path id="path8837" d="M1363.26 792.81l3.37-.37 1.29-3.28 1.37 3.25 3.37.26-2.52 2.37.8 3.44-2.92-1.77-2.89 1.86.71-3.47z"/><path id="path8839" d="M1353.32 784.4l3.37-.36 1.29-3.28 1.37 3.24 3.38.26-2.52 2.37.8 3.45-2.93-1.78-2.88 1.86.71-3.47z"/><path id="path8841" d="M1363.26 776.76l3.37-.37 1.29-3.28 1.37 3.24 3.37.27-2.52 2.37.8 3.44-2.92-1.78-2.89 1.86.71-3.46z"/><path id="path8843" d="M1353.32 768.35l3.37-.37 1.29-3.28 1.37 3.24 3.38.27-2.52 2.37.8 3.44-2.93-1.78-2.88 1.87.71-3.47z"/><path id="path8845" d="M1363.26 760.7l3.37-.36 1.29-3.28 1.37 3.24 3.37.27-2.52 2.36.8 3.45-2.94-1.78-2.89 1.86.71-3.46z"/><path id="path8847" d="M1353.32 752.29l3.37-.36 1.29-3.28 1.37 3.24 3.38.27-2.52 2.37.8 3.44-2.93-1.78-2.88 1.86.71-3.46z"/><path id="path8849" d="M1363.26 744.65l3.37-.36 1.29-3.28 1.37 3.24 3.37.26-2.52 2.37.8 3.45-2.92-1.78-2.89 1.86.71-3.47z"/><path id="path8851" d="M1353.32 736.24l3.37-.36 1.29-3.28 1.37 3.24 3.38.27-2.52 2.36.8 3.45-2.93-1.78-2.88 1.86.71-3.47z"/><path id="path8853" d="M1382.37 792.81l3.37-.37 1.29-3.28 1.37 3.25 3.37.26-2.52 2.37.81 3.44-2.93-1.77-2.89 1.86.71-3.47z"/><path id="path8855" d="M1372.44 784.4l3.36-.36 1.29-3.28 1.37 3.24 3.38.26-2.52 2.37.8 3.45-2.93-1.78-2.88 1.86.71-3.47z"/><path id="path8857" d="M1382.37 776.76l3.37-.37 1.29-3.28 1.37 3.24 3.37.27-2.52 2.37.81 3.44-2.93-1.78-2.89 1.86.71-3.46z"/><path id="path8859" d="M1372.44 768.35l3.36-.37 1.29-3.28 1.37 3.24 3.38.27-2.52 2.37.8 3.44-2.93-1.78-2.88 1.87.71-3.47z"/><path id="path8861" d="M1382.37 760.7l3.37-.36 1.29-3.28 1.37 3.24 3.37.27-2.52 2.36.81 3.45-2.93-1.78-2.89 1.86.76-3.46z"/><path id="path8863" d="M1372.44 752.29l3.36-.36 1.29-3.28 1.37 3.24 3.38.27-2.52 2.37.8 3.44-2.93-1.78-2.88 1.86.71-3.46z"/><path id="path8865" d="M1382.37 744.65l3.37-.36L1387 741l1.37 3.24 3.37.26-2.52 2.37.81 3.45-2.93-1.78-2.89 1.86.71-3.47z"/><path id="path8867" d="M1372.44 736.24l3.36-.36 1.29-3.28 1.37 3.24 3.38.27-2.52 2.36.8 3.45-2.93-1.78-2.88 1.86.71-3.47z"/><path id="path8869" d="M1401.48 792.81l3.37-.37 1.29-3.28 1.37 3.25 3.38.26-2.53 2.37.81 3.44-2.93-1.77-2.89 1.86.72-3.47z"/><path id="path8871" d="M1392.31 784.4l3.37-.36 1.28-3.28 1.38 3.24 3.37.26-2.52 2.37.8 3.45-2.93-1.78-2.88 1.86.71-3.47z"/><path id="path8873" d="M1430.53 784.4l3.37-.36 1.28-3.28 1.38 3.24 3.37.26-2.52 2.37.8 3.45-2.93-1.78-2.88 1.86.71-3.47z"/><path id="path8875" d="M1411.42 784.4l3.37-.36 1.28-3.28 1.38 3.24 3.37.26-2.52 2.37.8 3.45-2.93-1.78-2.88 1.86.71-3.47z"/><path id="path8877" d="M1440.47 792.81l3.37-.37 1.28-3.28 1.37 3.25 3.38.26-2.52 2.37.8 3.44-2.93-1.77-2.88 1.86.71-3.47z"/><path id="path8879" d="M1421.36 792.81l3.37-.37 1.28-3.28 1.37 3.25 3.38.26-2.52 2.37.8 3.44-2.93-1.77-2.88 1.86.71-3.47z"/><path id="path8881" d="M1392.31 736.24l3.37-.36 1.28-3.28 1.38 3.24 3.37.27-2.52 2.36.8 3.45-2.93-1.78-2.88 1.86.71-3.47z"/><path id="path8883" d="M1401.48 744.65l3.37-.36 1.29-3.28 1.37 3.24 3.38.26-2.53 2.37.81 3.45-2.93-1.78-2.89 1.86.72-3.47z"/><path id="path8885" d="M1392.31 752.29l3.37-.36 1.28-3.28 1.38 3.24 3.37.27-2.52 2.37.8 3.44-2.93-1.78-2.88 1.86.71-3.46z"/><path id="path8887" d="M1401.48 760.7l3.37-.36 1.29-3.28 1.37 3.24 3.38.27-2.53 2.36.81 3.45-2.93-1.78-2.89 1.86.72-3.46z"/><path id="path8889" d="M1392.31 768.35l3.37-.37 1.28-3.28 1.38 3.24 3.37.27-2.52 2.37.8 3.44-2.93-1.78-2.88 1.87.71-3.47z"/><path id="path8891" d="M1401.48 776.76l3.37-.37 1.29-3.28 1.37 3.24 3.38.27-2.53 2.37.81 3.44-2.93-1.78-2.89 1.86.72-3.46z"/><path id="path8893" d="M1450.41 784.4l3.36-.36 1.29-3.28 1.37 3.24 3.38.26-2.52 2.37.8 3.45-2.93-1.78-2.88 1.86.71-3.47z"/><path id="path8895" d="M1411.42 768.35l3.37-.37 1.28-3.28 1.38 3.24 3.37.27-2.52 2.37.8 3.44-2.93-1.78-2.88 1.87.71-3.47z"/><path id="path8897" d="M1411.42 736.24l3.37-.36 1.28-3.28 1.38 3.24 3.37.27-2.52 2.36.8 3.45-2.93-1.78-2.88 1.86.71-3.47z"/><path id="path8899" d="M1411.42 752.29l3.37-.36 1.28-3.28 1.38 3.24 3.37.27-2.52 2.37.8 3.44-2.93-1.78-2.88 1.86.71-3.46z"/><path id="path8901" d="M1440.47 776.76l3.37-.37 1.28-3.28 1.37 3.24 3.38.27-2.52 2.37.8 3.44-2.93-1.78-2.88 1.86.71-3.46z"/><path id="path8903" d="M1421.36 776.76l3.37-.37 1.28-3.28 1.37 3.24 3.38.27-2.52 2.37.8 3.44-2.93-1.78-2.88 1.86.71-3.46z"/><path id="path8905" d="M1421.36 744.65l3.37-.36L1426 741l1.37 3.24 3.38.26-2.52 2.37.8 3.45-2.93-1.78-2.88 1.86.71-3.47z"/><path id="path8907" d="M1421.36 760.7l3.37-.36 1.28-3.28 1.37 3.24 3.38.27-2.52 2.36.8 3.45-2.93-1.78-2.88 1.86.71-3.46z"/><path id="path8909" d="M1450.41 768.35l3.36-.37 1.29-3.28 1.37 3.24 3.38.27-2.52 2.37.8 3.44-2.93-1.78-2.88 1.87.71-3.47z"/><path id="path8911" d="M1430.53 768.35l3.37-.37 1.28-3.28 1.38 3.24 3.37.27-2.52 2.37.8 3.44-2.93-1.78-2.88 1.87.71-3.47z"/><path id="path8913" d="M1430.53 736.24l3.37-.36 1.28-3.28 1.38 3.24 3.37.27-2.52 2.36.8 3.45-2.93-1.78-2.88 1.86.71-3.47z"/><path id="path8915" d="M1430.53 752.29l3.37-.36 1.28-3.28 1.38 3.24 3.37.27-2.52 2.37.8 3.44-2.93-1.78-2.88 1.86.71-3.46z"/><path id="path8917" d="M1450.41 736.24l3.36-.36 1.29-3.28 1.37 3.24 3.38.27-2.52 2.36.8 3.45-2.93-1.78-2.88 1.86.71-3.47z"/><path id="path8919" d="M1440.47 744.65l3.37-.36 1.28-3.28 1.37 3.24 3.38.26-2.52 2.37.8 3.45-2.93-1.78-2.88 1.86.71-3.47z"/><path id="path8921" d="M1450.41 752.29l3.36-.36 1.29-3.28 1.37 3.24 3.38.27-2.52 2.37.8 3.44-2.93-1.78-2.88 1.86.71-3.46z"/><path id="path8923" d="M1440.47 760.7l3.37-.36 1.28-3.28 1.37 3.24 3.38.27-2.52 2.36.8 3.45-2.93-1.78-2.88 1.86.71-3.46z"/></g></g></g><circle class="cls-6" cx="1469.52" cy="795.28" r="84.91"/><g clip-path="url(#clip-path-5)"><g id="layer1-2" data-name="layer1"><path id="rect8764-2" data-name="rect8764" stroke="#000" stroke-width=".76" fill="none" d="M1360.22 717.9h289.71v152.12h-289.71z"/></g><g id="layer4-2" data-name="layer4"><path id="rect8767-2" data-name="rect8767" class="cls-32" d="M1360.22 857.79h289.71v12.23h-289.71z"/><path id="rect8769-2" data-name="rect8769" class="cls-6" d="M1360.22 845.56h289.71v12.23h-289.71z"/><path id="rect8771-2" data-name="rect8771" class="cls-32" d="M1360.22 833.33h289.71v12.23h-289.71z"/><path id="rect8773-2" data-name="rect8773" class="cls-6" d="M1360.22 821.1h289.71v12.23h-289.71z"/><path id="rect8775-2" data-name="rect8775" class="cls-32" d="M1360.22 809.63h289.71v11.47h-289.71z"/><path id="rect8777-2" data-name="rect8777" class="cls-6" d="M1360.22 798.16h289.71v11.47h-289.71z"/><path id="rect8779-2" data-name="rect8779" class="cls-32" d="M1360.22 786.7h289.71v11.47h-289.71z"/><path id="rect8781-2" data-name="rect8781" class="cls-6" d="M1360.22 775.23h289.71v11.47h-289.71z"/><path id="rect8783-2" data-name="rect8783" class="cls-32" d="M1360.22 763.77h289.71v11.47h-289.71z"/><path id="rect8785-2" data-name="rect8785" class="cls-6" d="M1360.22 752.3h289.71v11.47h-289.71z"/><path id="rect8787-2" data-name="rect8787" class="cls-32" d="M1360.22 740.83h289.71v11.47h-289.71z"/><path id="rect8791-2" data-name="rect8791" class="cls-6" d="M1360.22 729.37h289.71v11.47h-289.71z"/><path id="rect8793-2" data-name="rect8793" class="cls-32" d="M1360.22 717.9h289.71v11.47h-289.71z"/></g><g id="layer5-2" data-name="layer5"><path id="rect8796-2" data-name="rect8796" fill="#2e8fcd" d="M1360.22 717.9h116.19v80.26h-116.19z"/></g><g id="layer6-2" data-name="layer6"><path id="path8825-2" data-name="path8825" class="cls-6" d="M1365.08 788.7l3.37-.37 1.28-3.27 1.37 3.24 3.38.26-2.52 2.37.8 3.44-2.93-1.77-2.88 1.86.71-3.47z"/><path id="path8827-2" data-name="path8827" class="cls-6" d="M1384.19 788.7l3.37-.37 1.28-3.27 1.37 3.24 3.38.26-2.52 2.37.8 3.44-2.93-1.77-2.88 1.86.71-3.47z"/><path id="path8829-2" data-name="path8829" class="cls-6" d="M1404.06 788.7l3.37-.37 1.29-3.27 1.37 3.24 3.38.26-2.52 2.37.8 3.44-2.93-1.77-2.88 1.86.71-3.47z"/><path id="path8831-2" data-name="path8831" class="cls-6" d="M1423.17 788.7l3.37-.37 1.29-3.27 1.37 3.24 3.38.26-2.52 2.37.8 3.44-2.93-1.77-2.88 1.86.71-3.47z"/><path id="path8833-2" data-name="path8833" class="cls-6" d="M1442.28 788.7l3.37-.37 1.29-3.27 1.37 3.24 3.38.26-2.52 2.37.8 3.44-2.97-1.77-2.88 1.86.71-3.47z"/><path id="path8835-2" data-name="path8835" class="cls-6" d="M1462.16 788.7l3.37-.37 1.28-3.27 1.37 3.24 3.38.26-2.52 2.37.8 3.44-2.93-1.77-2.88 1.86.71-3.47z"/><path id="path8837-2" data-name="path8837" class="cls-6" d="M1375 781.05l3.36-.36 1.29-3.28 1.37 3.24 3.38.27-2.52 2.37.8 3.44-2.93-1.78-2.88 1.86.71-3.46z"/><path id="path8839-2" data-name="path8839" class="cls-6" d="M1365.08 772.65l3.37-.37 1.28-3.28 1.37 3.24 3.38.27-2.52 2.37.8 3.44-2.93-1.78-2.83 1.86.71-3.46z"/><path id="path8841-2" data-name="path8841" class="cls-6" d="M1375 765l3.36-.36 1.29-3.28 1.37 3.24 3.38.27-2.52 2.36.8 3.45-2.93-1.78-2.88 1.86.71-3.47z"/><path id="path8843-2" data-name="path8843" class="cls-6" d="M1365.08 756.59l3.37-.36 1.28-3.28 1.37 3.24 3.38.27-2.52 2.36.8 3.45-2.93-1.78-2.88 1.86.71-3.46z"/><path id="path8845-2" data-name="path8845" class="cls-6" d="M1375 749l3.36-.37 1.29-3.27 1.37 3.24 3.38.26-2.52 2.37.8 3.44-2.93-1.77-2.88 1.86.71-3.47z"/><path id="path8847-2" data-name="path8847" class="cls-6" d="M1365.08 740.54l3.37-.36 1.28-3.28 1.37 3.24 3.38.26-2.52 2.37.8 3.45-2.93-1.78-2.83 1.86.71-3.47z"/><path id="path8849-2" data-name="path8849" class="cls-6" d="M1375 732.9l3.36-.37 1.29-3.28 1.37 3.24 3.38.27-2.52 2.37.8 3.44-2.93-1.78-2.88 1.87.71-3.47z"/><path id="path8851-2" data-name="path8851" class="cls-6" d="M1365.08 724.49l3.37-.37 1.28-3.28 1.37 3.25 3.38.26-2.52 2.37.8 3.44-2.93-1.78-2.88 1.87.71-3.47z"/><path id="path8853-2" data-name="path8853" class="cls-6" d="M1394.13 781.05l3.36-.36 1.29-3.28 1.37 3.24 3.38.27-2.52 2.37.8 3.44-2.93-1.78-2.88 1.86.71-3.46z"/><path id="path8855-2" data-name="path8855" class="cls-6" d="M1384.19 772.65l3.37-.37 1.28-3.28 1.37 3.24 3.38.27-2.52 2.37.8 3.44-2.93-1.78-2.88 1.86.71-3.46z"/><path id="path8857-2" data-name="path8857" class="cls-6" d="M1394.13 765l3.36-.36 1.29-3.28 1.37 3.24 3.38.27-2.52 2.36.8 3.45-2.93-1.78-2.88 1.86.71-3.47z"/><path id="path8859-2" data-name="path8859" class="cls-6" d="M1384.19 756.59l3.37-.36 1.28-3.28 1.37 3.24 3.38.27-2.52 2.36.8 3.45-2.93-1.78-2.88 1.86.71-3.46z"/><path id="path8861-2" data-name="path8861" class="cls-6" d="M1394.13 749l3.36-.37 1.29-3.27 1.37 3.24 3.38.26-2.52 2.37.8 3.44-2.93-1.77-2.88 1.86.71-3.47z"/><path id="path8863-2" data-name="path8863" class="cls-6" d="M1384.19 740.54l3.37-.36 1.28-3.28 1.37 3.24 3.38.26-2.52 2.37.8 3.45-2.93-1.78-2.88 1.86.71-3.47z"/><path id="path8865-2" data-name="path8865" class="cls-6" d="M1394.13 732.9l3.36-.37 1.29-3.28 1.37 3.24 3.38.27-2.52 2.37.8 3.44-2.93-1.78-2.88 1.87.71-3.47z"/><path id="path8867-2" data-name="path8867" class="cls-6" d="M1384.19 724.49l3.37-.37 1.28-3.28 1.37 3.25 3.38.26-2.52 2.37.8 3.44-2.93-1.78-2.88 1.87.71-3.47z"/><path id="path8869-2" data-name="path8869" class="cls-6" d="M1413.24 781.05l3.37-.36 1.28-3.28 1.37 3.24 3.38.27-2.52 2.37.8 3.44L1418 785l-2.88 1.86.71-3.46z"/><path id="path8871-2" data-name="path8871" class="cls-6" d="M1404.06 772.65l3.37-.37 1.29-3.28 1.37 3.24 3.38.27-2.52 2.37.8 3.44-2.93-1.78-2.88 1.86.71-3.46z"/><path id="path8873-2" data-name="path8873" class="cls-6" d="M1442.28 772.65l3.37-.37 1.29-3.28 1.37 3.24 3.38.27-2.52 2.37.8 3.44-2.93-1.78-2.88 1.86.71-3.46z"/><path id="path8875-2" data-name="path8875" class="cls-6" d="M1423.17 772.65l3.37-.37 1.29-3.28 1.37 3.24 3.38.27-2.52 2.37.8 3.44-2.93-1.78-2.88 1.86.71-3.46z"/><path id="path8877-2" data-name="path8877" class="cls-6" d="M1452.22 781.05l3.37-.36 1.29-3.28 1.37 3.24 3.37.27-2.52 2.37.8 3.44-2.9-1.73-2.89 1.86.71-3.46z"/><path id="path8879-2" data-name="path8879" class="cls-6" d="M1433.11 781.05l3.37-.36 1.29-3.28 1.37 3.24 3.37.27-2.52 2.37.8 3.44-2.93-1.78-2.88 1.86.71-3.46z"/><path id="path8881-2" data-name="path8881" class="cls-6" d="M1404.06 724.49l3.37-.37 1.29-3.28 1.37 3.25 3.38.26-2.52 2.37.8 3.44-2.93-1.78-2.88 1.87.71-3.47z"/><path id="path8883-2" data-name="path8883" class="cls-6" d="M1413.24 732.9l3.37-.37 1.28-3.28 1.37 3.24 3.38.27-2.52 2.37.8 3.44-2.93-1.78-2.88 1.87.71-3.47z"/><path id="path8885-2" data-name="path8885" class="cls-6" d="M1404.06 740.54l3.37-.36 1.29-3.28 1.37 3.24 3.38.26-2.52 2.37.8 3.45-2.93-1.78-2.88 1.86.71-3.47z"/><path id="path8887-2" data-name="path8887" class="cls-6" d="M1413.24 749l3.37-.37 1.28-3.27 1.37 3.24 3.38.26-2.52 2.37.8 3.44-2.93-1.77-2.88 1.86.71-3.47z"/><path id="path8889-2" data-name="path8889" class="cls-6" d="M1404.06 756.59l3.37-.36 1.29-3.28 1.37 3.24 3.38.27-2.52 2.36.8 3.45-2.93-1.78-2.88 1.86.71-3.46z"/><path id="path8891-2" data-name="path8891" class="cls-6" d="M1413.24 765l3.37-.36 1.28-3.28 1.37 3.24 3.38.27-2.52 2.36.8 3.45-2.92-1.78-2.88 1.86.71-3.47z"/><path id="path8893-2" data-name="path8893" class="cls-6" d="M1462.16 772.65l3.37-.37 1.28-3.28 1.37 3.24 3.38.27-2.52 2.37.8 3.44-2.93-1.78-2.91 1.86.71-3.46z"/><path id="path8895-2" data-name="path8895" class="cls-6" d="M1423.17 756.59l3.37-.36 1.29-3.28 1.37 3.24 3.38.27-2.52 2.36.8 3.45-2.93-1.78-2.88 1.86.71-3.46z"/><path id="path8897-2" data-name="path8897" class="cls-6" d="M1423.17 724.49l3.37-.37 1.29-3.28 1.37 3.25 3.38.26-2.52 2.37.8 3.44-2.93-1.78-2.88 1.87.71-3.47z"/><path id="path8899-2" data-name="path8899" class="cls-6" d="M1423.17 740.54l3.37-.36 1.29-3.28 1.37 3.24 3.38.26-2.52 2.37.8 3.45-2.93-1.78-2.88 1.86.71-3.47z"/><path id="path8901-2" data-name="path8901" class="cls-6" d="M1452.22 765l3.37-.36 1.29-3.28 1.37 3.24 3.37.27-2.52 2.36.8 3.45-2.9-1.78-2.89 1.86.71-3.47z"/><path id="path8903-2" data-name="path8903" class="cls-6" d="M1433.11 765l3.37-.36 1.29-3.28 1.37 3.24 3.37.27-2.52 2.36.8 3.45-2.93-1.78-2.88 1.86.71-3.47z"/><path id="path8905-2" data-name="path8905" class="cls-6" d="M1433.11 732.9l3.37-.37 1.29-3.28 1.37 3.24 3.37.27-2.52 2.37.8 3.44-2.93-1.78-2.88 1.87.71-3.47z"/><path id="path8907-2" data-name="path8907" class="cls-6" d="M1433.11 749l3.37-.37 1.29-3.27 1.37 3.24 3.37.26-2.52 2.37.8 3.44-2.93-1.77-2.88 1.86.71-3.47z"/><path id="path8909-2" data-name="path8909" class="cls-6" d="M1462.16 756.59l3.37-.36 1.28-3.28 1.37 3.24 3.38.27-2.52 2.36.8 3.45-2.93-1.78-2.88 1.86.71-3.46z"/><path id="path8911-2" data-name="path8911" class="cls-6" d="M1442.28 756.59l3.37-.36 1.29-3.28 1.37 3.24 3.38.27-2.52 2.36.8 3.45-2.93-1.78-2.88 1.86.71-3.46z"/><path id="path8913-2" data-name="path8913" class="cls-6" d="M1442.28 724.49l3.37-.37 1.29-3.28 1.37 3.25 3.38.26-2.52 2.37.8 3.44-2.93-1.78-2.88 1.87.71-3.47z"/><path id="path8915-2" data-name="path8915" class="cls-6" d="M1442.28 740.54l3.37-.36 1.29-3.28 1.37 3.24 3.38.26-2.52 2.37.8 3.45-2.93-1.78-2.88 1.86.71-3.47z"/><path id="path8917-2" data-name="path8917" class="cls-6" d="M1462.16 724.49l3.37-.37 1.28-3.28 1.37 3.25 3.38.26-2.52 2.37.8 3.44-2.93-1.78-2.88 1.87.71-3.47z"/><path id="path8919-2" data-name="path8919" class="cls-6" d="M1452.22 732.9l3.37-.37 1.29-3.28 1.37 3.24 3.37.27-2.52 2.37.8 3.44-2.92-1.78-2.89 1.87.71-3.47z"/><path id="path8921-2" data-name="path8921" class="cls-6" d="M1462.16 740.54l3.37-.36 1.28-3.28 1.37 3.24 3.38.26-2.52 2.37.8 3.45-2.93-1.78-2.91 1.86.71-3.47z"/><path id="path8923-2" data-name="path8923" class="cls-6" d="M1452.22 749l3.37-.37 1.29-3.27 1.37 3.24 3.37.26-2.52 2.37.8 3.44-2.92-1.77-2.89 1.86.71-3.47z"/></g></g><g style="mix-blend-mode:multiply" opacity=".1"><path d="M772.56 722.53c-9.12 0-15.71 1.74-20.77 5.49-5.25 3.91-8.75 9.61-10.21 17-.25 1.48-.71 3.92-1.39 7.3 0 0-3.08 15.24-3.4 16.84-1.67-7.73-3-13.78-3.85-18a59.91 59.91 0 0 0-2.51-9.4 28.18 28.18 0 0 0-6.51-10.32 26.22 26.22 0 0 0-11.36-6.61 42.67 42.67 0 0 0-11.92-1.48c-9.15 0-16.52 2.6-21.94 7.73-5 4.75-8.2 11.88-9.8 21.82-.4 2-.89 4.62-1.47 7.86s-2.14 11.62-2.23 12.12c-.05-.21-.1-.43-.14-.64q-2.17-9.76-3.95-17.57c-1.27-5.54-2.19-9.29-2.63-10.81-1.79-7.16-5.24-12.62-10.27-16.23-4.74-3.41-10.86-5.06-18.7-5.06s-13.53 1.19-18 3.68a24.44 24.44 0 0 0-10.86-2.5c-1.41 0-4.48 0-9.23-.1s-10.73-.16-17.72-.3-14.86-.22-23.44-.29-17.23-.1-26.05-.1c-3.25 0-12.85.08-19.22 7.17-.25-.23-.51-.48-.76-.69-4.49-3.64-10.13-5.49-16.76-5.49h-5.31c-7.86 0-14.11 2.36-18.61 7-3 3.09-6.49 8.6-6.49 17.27 0 2.76 0 5 .12 6.61.06 1.46.12 3.33.18 5.57s.13 5.54.2 9.66c0 2.25.06 5 .07 8.32q-4.12-6.76-7.83-12.89-4.71-7.82-8.31-13.53c-2.11-3.34-3.53-5.65-4.24-6.94l-.3-.53q-2-3.37-4.07-6.33a37.52 37.52 0 0 0-6.78-7.42 32.45 32.45 0 0 0-10.1-5.55 38.88 38.88 0 0 0-12.67-1.88c-11.41 0-19.85 3.5-25.1 10.39-4.3 5.65-6.48 13-6.48 21.79q0 1 .1 6 .11 4.59.1 11 0 6.68.1 14.24.09 7.37.1 13.36v10c0 3.85 0 7.91-.1 12.14q-.1 6.6-.1 13.3c0 4.29 0 8.2-.1 11.71q-.11 5.57-.1 9.51v4.82a23.68 23.68 0 0 0 7.51 17.59 25.05 25.05 0 0 0 17.39 6.52h3.54a29.49 29.49 0 0 0 16.35-4.56c6.53-4.23 10.12-11.17 10.12-19.55v-9.83q0-6.78-.1-14c0-1.39 0-2.74-.05-4.06l11.77 19.93c2.55 4.3 4.37 7.31 5.26 8.74a62.25 62.25 0 0 0 11.93 15.05c6.07 5.48 13.92 8.25 23.32 8.25 10.79 0 19-2.84 24.63-8.38.17.22.31.46.49.67a20.76 20.76 0 0 0 9.49 6.36 30.17 30.17 0 0 0 9.6 1.35h7.18q5.3 0 12.21-.09 6.68-.11 13.92-.11h13.46q12.5 0 22.15.11 9.86.09 12.63.09c11.25 0 16.72-6 19-9.61 2.7-4.29 4-9.59 4-16.66 0-1.87-.1-3.56-.23-5.19.53 2.14 1.07 4.25 1.6 6.18a45.44 45.44 0 0 0 4.08 11.25 26.84 26.84 0 0 0 19.82 14 60 60 0 0 0 9.52.68c10.77 0 18.89-2.52 24.81-7.69 5.56-4.85 9.39-12.13 11.37-21.63l.12-.61q.38-2.25 1.69-9l1-4.84.45 2.12q1.83 8.71 3 14.71c1.7 8.76 5.2 15.43 10.4 19.82 5.38 4.55 13 6.76 23.26 6.76a71.28 71.28 0 0 0 10.73-.67 27.6 27.6 0 0 0 10.94-4 22.93 22.93 0 0 0 8.49-10.08 65.51 65.51 0 0 0 2.59-7.33l1.63-6.48c.44-1.78 1-4.09 1.81-7l3.13-11.64q2-7.35 5.17-19.87l5.49-21.59q2.39-9.33 4.08-16.29c1.13-4.68 2.07-8.65 2.81-12q1-4.37 1.87-7.58l.22-.9c.33-1.55.75-3.21 1.24-5a40.19 40.19 0 0 0 1.36-10.83 21.27 21.27 0 0 0-8.12-16.68c-6.06-4.9-13.88-5.47-19.32-5.47zM1337.64 846.43a48.22 48.22 0 0 1-4-3.23 20 20 0 0 1-3.35-4.34c-.25-.41-1.56-2.76-2.61-9.59a46.82 46.82 0 0 0-6.22-18 40.21 40.21 0 0 0-10.69-11.61 42.2 42.2 0 0 0-6.22-3.69q5.49-5.52 11.06-11.16l12.19-12.4c4-4.07 6.84-7.08 8.48-9a37.21 37.21 0 0 0 6.89-10.48 26.92 26.92 0 0 0 2.17-10.21 20.21 20.21 0 0 0-5.48-13.88c-3.9-4.18-9.37-6.3-16.28-6.3h-9.23a36.67 36.67 0 0 0-17.13 3.76c-4.25 2.24-8.57 5.84-13.08 10.87 0 0-13.37 14.52-16.93 18.41q-4.38 4.78-8.55 9.43V747c0-9-4-16.46-11-20.36-4.53-2.53-10.3-3.76-17.66-3.76-9.09 0-14.9 1.16-19.46 3.9a20.5 20.5 0 0 0-8.66 10.89c-1.11-.94-2.19-1.9-3.41-2.77-6.83-4.89-15.43-8.63-25.57-11.1-9.44-2.3-20.64-3.47-33.29-3.47-11.36 0-20.19.24-27 .73-7.85.56-13.91 1.63-18.53 3.26-7.15 2.52-12.17 6.68-14.94 12.38a30.7 30.7 0 0 0-2.77 10.51c-1.09-1.33-2.15-2.68-3.33-3.91a69.14 69.14 0 0 0-25.85-16.91 91 91 0 0 0-32.16-5.47 110.61 110.61 0 0 0-22.15 2.08 72.83 72.83 0 0 0-19.54 7 64.64 64.64 0 0 0-12.84 9 19.71 19.71 0 0 0-8.5-12.39c-4.28-2.86-9.81-4.08-18.48-4.08a57.39 57.39 0 0 0-9.71.71 27.83 27.83 0 0 0-10.17 3.76 27 27 0 0 0-7.26 6.8 42 42 0 0 0-4.18 7.2L888 770.61 873.51 740a36.93 36.93 0 0 0-4.18-7.08 25.17 25.17 0 0 0-7.88-6.72A30.24 30.24 0 0 0 852 723a55.85 55.85 0 0 0-9.48-.71c-26.39 0-28.44 15.75-28.44 20.58a23.06 23.06 0 0 0 3.25 12.25c.67 1.1 1.49 2.5 2.49 4.25.89 1.54 9.95 17.55 9.95 17.55q3.32 5.85 7.12 12.69l7.54 13.51 8.24 14.91c1.92 3.49 3.43 6.36 4.5 8.62a23 23 0 0 1 1.5 3.76 9.3 9.3 0 0 1 .21 2.26v6.19q0 4.58.1 9.45c.07 3 .1 5.88.1 8.53v5.31a23.42 23.42 0 0 0 8 18.18c6.21 5.32 14.77 5.93 20.67 5.93 8.74 0 15-1.46 19.65-4.62 3.58-2.43 9.58-8.18 9.58-19.49 0-5.83 0-11.42-.1-16.8q-.11-7.83-.1-12.87a11.15 11.15 0 0 1 .12-1.93c.44-1 1.22-2.63 2.55-5l.29-.55c.47-1 1.73-3.2 3.75-6.77l8.18-14.47 1.61-2.89c0 1-.08 2-.08 3A105.17 105.17 0 0 0 938 836a80.19 80.19 0 0 0 15.09 27.57 71.75 71.75 0 0 0 25.71 19.1c10.08 4.51 21.74 6.8 34.67 6.8 13.92 0 26.18-2.42 36.44-7.19a71.88 71.88 0 0 0 25.68-19.59c.15-.19.28-.4.43-.59a28.84 28.84 0 0 0 1 7.58 20.85 20.85 0 0 0 7 10.65 25.56 25.56 0 0 0 10.76 4.94 41.66 41.66 0 0 0 9.25.9c.87 0 1.78 0 2.85-.06 7.64-.36 13.21-1.4 17.52-3.28a21 21 0 0 0 12.81-19.83v-8c0-3.81 0-7.72-.1-11.76q-.06-3.91-.08-7.4c.69.07 1.34.17 1.94.28a3.28 3.28 0 0 1 1.11.35 5.27 5.27 0 0 1 .91 1.34 38.66 38.66 0 0 1 2.73 7.75 86.44 86.44 0 0 0 6.47 17.54 45.6 45.6 0 0 0 10.28 13.5 37.25 37.25 0 0 0 15.32 8 64.17 64.17 0 0 0 15.91 1.85c8.26 0 14.49-1.44 19.32-4.42 4.23 2.4 9.46 3.63 16 3.63h7.47c9.06 0 15.78-2.8 20-8.33 3.25-4.27 4.9-9.65 4.9-16v-4.71q0-3.53-.11-7.57c-.06-2.42-.09-4.77-.09-7.07v-4.78c.31-.34.8-.85 1.55-1.54l2-1.8a96.07 96.07 0 0 1 3 9.29c3.93 14.77 9.64 25.38 17.45 32.45 8.36 7.58 19.23 11.42 32.3 11.42 10.14 0 17.26-2.12 22.41-6.67 6.93-6.1 8.38-12.64 8.38-17a20.29 20.29 0 0 0-8.64-16.92z"/><path d="M396.65 870.83a10.28 10.28 0 0 1-7.27-2.55 8.67 8.67 0 0 1-2.75-6.68v-4.82q0-3.82.1-9.23t.1-12q0-6.59.09-13.06t.1-12.38v-10q0-6.09-.1-13.55t-.09-14c0-4.39 0-8.16-.1-11.31s-.1-5-.1-5.69q0-8.25 3.44-12.78t13.26-4.52a24.71 24.71 0 0 1 7.86 1.08 17.25 17.25 0 0 1 5.41 3 21.86 21.86 0 0 1 4 4.42c1.18 1.71 2.36 3.54 3.54 5.51q1.18 2.16 4.72 7.76t8.14 13.14q4.62 7.67 9.93 16.31t10 16.9q4.32 7.47 7.07 12.18c1.84 3.15 3.24 5.61 4.23 7.37a28.87 28.87 0 0 0 2.26 3.64c.52.66 1 1 1.37 1 .92 0 1.38-.79 1.38-2.36s-.13-6.19-.39-13.46-.4-16.21-.4-26.82q0-11.79-.1-18.08c-.06-4.19-.13-7.47-.19-9.82s-.14-4.3-.2-5.8-.1-3.5-.1-6q0-4.51 2.36-7t7.86-2.46h5.31q4.71 0 7.37 2.16c1.76 1.45 2.65 3.94 2.65 7.47V853q0 8.65-3.93 13.27t-14.74 4.61q-8.44 0-13.36-4.42a47.36 47.36 0 0 1-9-11.5q-1.58-2.55-5.31-8.83t-8.25-14q-4.51-7.67-9.14-15.52T425.93 803q-4.51-8.06-7-13c-1.64-3.27-2.88-5.8-3.73-7.56a35.57 35.57 0 0 0-1.86-3.54 1.69 1.69 0 0 0-1.38-.89c-.66 0-1 .66-1 2s.1 5.5.29 12.18.29 15.13.29 25.35v7.47q0 5.9.1 13t.1 13.75v9.83q0 4.9-3.34 7.07a14.82 14.82 0 0 1-8.25 2.16zM546 818.17c-1.84 0-3 .49-3.64 1.47a6.57 6.57 0 0 0-.88 3.44c0 1.18 0 3.18-.1 6s-.1 5.86-.1 9.14.82 5.43 2.45 6.48 4.1 1.57 7.37 1.57h15.14c3.53 0 7.27 0 11.2-.1s7.66-.09 11.2-.09h15.13c3.4 0 5.73.91 7 2.75s1.87 5.37 1.87 10.61q0 6.09-1.67 8.74t-6.39 2.65q-2.74 0-12.47-.09t-22.31-.1h-13.49q-7.37 0-14.15.1t-12 .09H523a16 16 0 0 1-4.91-.59 5.64 5.64 0 0 1-4-4.52 18.63 18.63 0 0 1-.29-3.34q0-1.75.1-8.94t.19-16.5q.11-9.35.2-19.06t.1-16.81q0-7.07-.1-15.52t-.1-16.21q0-7.76-.1-13.85c-.06-4.06-.1-6.88-.1-8.45q0-4.53 1.87-6.88c1.25-1.58 4-2.36 8.35-2.36q13.17 0 25.94.1c8.52.06 16.28.17 23.29.29s12.93.23 17.78.3 8 .09 9.43.09c2.88 0 5 .86 6.49 2.56s2.16 5 2.16 9.83q0 6.48-2.36 9.43c-1.57 2-4.26 3-8 3-.53 0-1.94 0-4.23-.1s-5.11-.1-8.45-.1-6.91-.06-10.71-.2-7.47-.19-11-.19-6.75 0-9.63-.1-4.91-.1-6.09-.1q-6.5 0-6.49 6.48v21.62a7.72 7.72 0 0 0 1.28 4.91c.85 1 2.58 1.58 5.21 1.58h50.69q4.53 0 6.39 2.25c1.24 1.51 1.87 4.3 1.87 8.36 0 3.53-.53 6.15-1.57 7.86s-3.08 2.55-6.1 2.55zM742.89 813.85q.2-1.58 1.18-6.49t2.36-11.49q1.37-6.58 2.94-14.15t3-14.34q1.38-6.79 2.46-12.19t1.47-7.76a11.77 11.77 0 0 1 4.42-7.47q3.44-2.55 11.89-2.55 7.28 0 9.93 2.16a6.44 6.44 0 0 1 2.65 5.11 25.22 25.22 0 0 1-.89 6.87q-.88 3.15-1.47 5.9-1 3.54-2.06 8.35T778 777.49q-1.68 6.88-4 16.12t-5.5 21.61q-3.15 12.39-5.11 19.65t-3.15 11.7c-.78 2.94-1.41 5.34-1.86 7.17s-1 3.8-1.48 5.89a49.25 49.25 0 0 1-2 5.61 7.88 7.88 0 0 1-3 3.53 13.12 13.12 0 0 1-5.11 1.77 58.42 58.42 0 0 1-8.45.49q-9.82 0-13.66-3.24t-5.4-11.3q-1.18-6.09-3-14.94T712.33 823q-2.05-9.72-4-19.45T705 786.14c-.79-4.58-1.48-7.5-2.07-8.74a2.72 2.72 0 0 0-2.46-1.87 2 2 0 0 0-1.66 1.08 13.11 13.11 0 0 0-1.28 4.23q-2.18 12.38-4.33 24.46t-4.12 22.11q-2 10-3.34 17.09c-.92 4.72-1.51 7.86-1.77 9.44q-2 9.42-6.59 13.46t-15 4a45.34 45.34 0 0 1-7.17-.49 12.51 12.51 0 0 1-5.3-2.06 12.78 12.78 0 0 1-3.84-4.42 31.9 31.9 0 0 1-2.75-7.76c-.65-2.36-1.31-4.88-2-7.57s-1.51-6.09-2.56-10.22-2.36-9.27-3.93-15.42-3.53-13.76-5.89-22.8q-4.32-16.7-7-26.72c-1.77-6.69-3.14-12-4.13-15.82s-1.64-6.68-2-8.45a26.4 26.4 0 0 1-.49-4.81 6.11 6.11 0 0 1 3.14-5.61q3.15-1.86 11-1.86 6.87 0 10 2.26t4.52 7.76q.78 2.75 2.55 10.51t3.93 17.49q2.16 9.74 4.33 19.85t3.73 17.59q1.57 7.47 2.56 11.59a53.37 53.37 0 0 0 1.76 6.19 4.82 4.82 0 0 0 1.67 2.55 4.17 4.17 0 0 0 2.07.49c1.7 0 2.91-2 3.63-6s1.6-9 2.66-15q.18-1.57 1-5.7c.52-2.75 1.14-5.92 1.86-9.53s1.44-7.43 2.17-11.5 1.44-8 2.16-11.88 1.37-7.44 2-10.71 1.08-5.9 1.48-7.86c1-6.69 2.84-11.23 5.4-13.66s6.45-3.64 11.69-3.64a28.34 28.34 0 0 1 7.76.89 11.45 11.45 0 0 1 5 2.85 13.34 13.34 0 0 1 3.05 4.91 46 46 0 0 1 1.87 7.07q1.56 7.49 4.52 21.13t7.07 34.29q1.38 7.47 2.26 12.38c.59 3.27 1.11 5.83 1.57 7.66a11.57 11.57 0 0 0 1.48 3.83 2.32 2.32 0 0 0 2 1.08c1.31 0 2.29-1.89 2.95-5.69s1.55-8.71 2.73-14.74zM915.62 747.43a28.35 28.35 0 0 1 2.75-4.82 11.84 11.84 0 0 1 3.24-3 12.84 12.84 0 0 1 4.72-1.67 43.11 43.11 0 0 1 7.17-.49c5.24 0 8.64.52 10.22 1.57a4.76 4.76 0 0 1 2.35 4.13c0 .78 0 1.47-.09 2.06a11.33 11.33 0 0 1-.59 2.26 25.12 25.12 0 0 1-1.48 3.24q-1 1.88-2.75 5-6.09 11-11.89 21.62t-10.61 19.16l-8.15 14.44q-3.35 5.9-4.13 7.47-2.16 3.93-3.34 6.68a19.25 19.25 0 0 0-1.18 7.47q0 5.12.1 13.06t.1 16.61c0 3.4-1 5.8-3 7.17s-5.8 2.06-11.3 2.06-9.17-.78-11-2.35-2.76-3.9-2.76-6.91v-5.31c0-2.75 0-5.69-.1-8.84s-.1-6.19-.1-9.14v-6.19a23.87 23.87 0 0 0-.69-6 37.35 37.35 0 0 0-2.45-6.39q-1.77-3.72-4.91-9.43l-8.3-14.89q-3.74-6.69-7.56-13.56t-7.18-12.78q-3.33-5.88-6-10.61t-4-7.07q-1.58-2.75-2.65-4.52a8.55 8.55 0 0 1-1.08-4.52q0-5.7 13.56-5.7a42.69 42.69 0 0 1 7 .49 15.78 15.78 0 0 1 4.82 1.57 10.23 10.23 0 0 1 3.24 2.75 23.18 23.18 0 0 1 2.46 4.23l16.31 34.39q3.52 7.07 5.5 11.3c1.31 2.81 2.32 4.95 3 6.38a11.83 11.83 0 0 0 1.66 2.75 1.9 1.9 0 0 0 1.38.6 2.21 2.21 0 0 0 1.47-.6 10.89 10.89 0 0 0 1.87-2.84q1.18-2.26 3.24-6.58t5.6-11.8zM1013.47 874.57q-16.31 0-28.59-5.5a56.74 56.74 0 0 1-20.43-15.13 65.29 65.29 0 0 1-12.29-22.5 90 90 0 0 1-4.16-27.61 92 92 0 0 1 2.06-19.65 58 58 0 0 1 7.57-18.28 78.12 78.12 0 0 1 10.21-13.36 50.16 50.16 0 0 1 12.48-9.43 57 57 0 0 1 15.53-5.5 94.05 94.05 0 0 1 19.16-1.78 75.7 75.7 0 0 1 26.92 4.53 53.91 53.91 0 0 1 20.33 13.26 58.22 58.22 0 0 1 12.78 21.52q4.43 12.76 4.42 29.47a92.65 92.65 0 0 1-3.73 26.23 63.23 63.23 0 0 1-11.7 22.41 56.77 56.77 0 0 1-20.43 15.52q-12.44 5.81-30.13 5.8zm1.18-25.16q18.28 0 27.22-11.88t8.94-32.33a60.23 60.23 0 0 0-2.16-16.21 40 40 0 0 0-6.68-13.66 33.51 33.51 0 0 0-11.4-9.43 34.78 34.78 0 0 0-16.11-3.54 37.72 37.72 0 0 0-16.31 3.35 28.05 28.05 0 0 0-11.4 9.62 53.36 53.36 0 0 0-3.14 5.11 35.4 35.4 0 0 0-2.46 5.9 44.26 44.26 0 0 0-1.67 7.95 88.08 88.08 0 0 0-.59 11.11q0 21.23 9.33 32.62t26.43 11.39zM1131.77 820.73q-5.7 0-7.67 1.47c-1.31 1-2 2.59-2 4.81v5.7q0 4.92.1 10.81t.09 11.5v8c0 3-1.27 5.08-3.83 6.19s-6.65 1.8-12.28 2.07a33.19 33.19 0 0 1-8.15-.49 11.25 11.25 0 0 1-4.62-2 5.82 5.82 0 0 1-2.06-3 13.72 13.72 0 0 1-.49-3.73q0-3.33.19-19.55t.2-43.72v-21q0-8.14-.1-13.36t-.1-8.16V751a17.84 17.84 0 0 1 1.47-7.76q1.49-3 6.49-4.82t14.64-2.45q9.63-.69 25.94-.69 17.28 0 29.77 3t20.43 8.75a34.56 34.56 0 0 1 11.7 14 45.44 45.44 0 0 1 3.73 18.86q0 9-2.36 15a27.85 27.85 0 0 1-13.85 15.52 75.34 75.34 0 0 1-7.86 3.34c-2.43.85-4.42 1.54-6 2.06s-2.35 1.25-2.35 2.16.71 1.77 2.16 2.56a40.48 40.48 0 0 1 5.11 3.44 40 40 0 0 1 6.09 6 31.36 31.36 0 0 1 5.31 10.22q2 6.48 4.81 9.53a43 43 0 0 0 5.31 4.91c1.63 1.25 3 2.39 4.22 3.44a6 6 0 0 1 1.77 4.72c0 2-1.12 3.93-3.34 5.89s-6.42 3-12.58 3a48.55 48.55 0 0 1-12.18-1.38 22.24 22.24 0 0 1-9.24-4.81 30.56 30.56 0 0 1-6.87-9.14 72.5 72.5 0 0 1-5.31-14.54 53.08 53.08 0 0 0-3.93-10.81 18.31 18.31 0 0 0-5.21-6.38 17.34 17.34 0 0 0-7.27-3 55.29 55.29 0 0 0-9.88-.89zm42.84-38.52a18.72 18.72 0 0 0-8.06-15.92q-8.05-5.89-26.53-5.89a77.48 77.48 0 0 0-8.65.39 15.26 15.26 0 0 0-5.2 1.38 5.15 5.15 0 0 0-2.56 2.94 15.83 15.83 0 0 0-.68 5.11v5c0 2.68 0 5.57-.1 8.64s-.1 6-.1 8.65v4.81a7.92 7.92 0 0 0 .59 3.14 5 5 0 0 0 2.55 2.36 18.74 18.74 0 0 0 5.8 1.48 88.86 88.86 0 0 0 10.51.49q16.71 0 24.57-6.29a20 20 0 0 0 7.86-16.29zM1227.07 870.83q-6.28 0-9.14-1.86t-2.85-7.57c0-1.31 0-4.25.1-8.84s.13-9.69.2-15.33.13-11.36.2-17.19.09-10.71.09-14.64 0-8.94-.09-15-.1-12.15-.1-18.18 0-11.43-.1-16.21-.1-7.83-.1-9.14c0-3.66 1-6.09 3-7.27s5.89-1.77 11.79-1.77q7.07 0 10.41 1.87t3.34 7.37v13c0 3.14 0 6.55-.1 10.21s-.09 7.18-.09 10.52v15.62c0 2.23.91 3.34 2.75 3.34a4.85 4.85 0 0 0 3-1.47 32.33 32.33 0 0 0 3.44-3.64c1.18-1.44 2.36-2.92 3.54-4.42s2.29-2.85 3.34-4q3.13-3.54 8.15-9.14t10.32-11.4l10-10.9q4.72-5.12 6.88-7.47 5.1-5.7 9-7.76a22 22 0 0 1 10.22-2.06h9.23c2.62 0 4.43.52 5.41 1.57a5.28 5.28 0 0 1 1.47 3.73 12.58 12.58 0 0 1-1.08 4.62 23.18 23.18 0 0 1-4.22 6.19q-2.37 2.76-8 8.45L1305 774.35q-6.59 6.69-13.06 13.16t-10.61 10.81a4.93 4.93 0 0 0-1.28 1.87 5.23 5.23 0 0 0-.3 1.67c0 1.18.72 2 2.16 2.56a52.3 52.3 0 0 0 5.41 1.57c2.16.52 4.55 1.18 7.17 2a26.49 26.49 0 0 1 7.67 3.83 25.72 25.72 0 0 1 6.68 7.37 32.73 32.73 0 0 1 4.12 12.38q1.57 10.23 4.72 15.23a34.34 34.34 0 0 0 6.19 7.67 67.34 67.34 0 0 0 5.3 4.22 5.36 5.36 0 0 1 2.26 4.72c0 2-1.11 3.93-3.34 5.89s-6.42 3-12.57 3q-14 0-22.31-7.57t-13.06-25.25q-3.54-13-7.08-18.08t-7.66-5.11a13.63 13.63 0 0 0-4.62.69 15.75 15.75 0 0 0-4.42 2.85q-3.35 3-5.6 5a32 32 0 0 0-3.64 3.84 14.19 14.19 0 0 0-2.06 3.53 11.35 11.35 0 0 0-.69 4.13v5.8q0 3.63.1 7.46c.06 2.56.1 5 .1 7.18v4.71c0 3-.62 5.34-1.87 7s-4 2.45-8.15 2.45z"/></g><path class="cls-6" d="M782.48 712.61c-9.12 0-15.72 1.74-20.77 5.49-5.25 3.91-8.75 9.61-10.21 16.95-.25 1.48-.71 3.92-1.39 7.3 0 0-3.08 15.24-3.41 16.84-1.66-7.73-3-13.78-3.84-18a61.34 61.34 0 0 0-2.51-9.4 28.18 28.18 0 0 0-6.51-10.32 26.22 26.22 0 0 0-11.36-6.61 42.69 42.69 0 0 0-11.92-1.47c-9.15 0-16.53 2.59-21.94 7.73-5 4.74-8.2 11.88-9.8 21.81-.4 2-.89 4.62-1.47 7.86s-2.14 11.62-2.23 12.12l-.15-.64q-2.16-9.76-3.94-17.56c-1.27-5.55-2.19-9.3-2.63-10.82-1.79-7.16-5.25-12.61-10.27-16.23-4.74-3.41-10.86-5.06-18.7-5.06s-13.53 1.19-18 3.68a24.47 24.47 0 0 0-10.86-2.5c-1.41 0-4.48 0-9.24-.1s-10.72-.16-17.71-.29-14.86-.23-23.44-.3-17.24-.1-26-.1c-3.25 0-12.86.08-19.22 7.17-.25-.23-.51-.48-.77-.69-4.56-3.63-10.19-5.47-16.83-5.47h-5.31c-7.86 0-14.12 2.36-18.61 7-3 3.09-6.49 8.6-6.49 17.27 0 2.76 0 5 .11 6.61.07 1.46.13 3.33.19 5.57s.13 5.54.2 9.67c0 2.24.06 5 .07 8.31q-4.12-6.76-7.83-12.89-4.69-7.78-8.31-13.54c-2.11-3.34-3.53-5.64-4.24-6.94l-.3-.53c-1.35-2.25-2.71-4.35-4.07-6.33a37.2 37.2 0 0 0-6.79-7.41 31.88 31.88 0 0 0-10.06-5.55 38.61 38.61 0 0 0-12.67-1.88c-11.41 0-19.85 3.49-25.1 10.38-4.3 5.65-6.48 13-6.48 21.79q0 1 .1 6 .11 4.59.1 11 0 6.67.1 14.24.09 7.37.09 13.36v10c0 3.85 0 7.91-.09 12.14q-.11 6.6-.1 13.3c0 4.29 0 8.2-.1 11.71q-.11 5.56-.1 9.52v4.81a23.68 23.68 0 0 0 7.51 17.59 25 25 0 0 0 17.39 6.52h3.54a29.57 29.57 0 0 0 16.35-4.55c6.52-4.24 10.12-11.18 10.12-19.56v-9.83q0-6.78-.1-14c0-1.39 0-2.75-.05-4.07l11.77 19.93c2.55 4.3 4.37 7.31 5.26 8.74a62.27 62.27 0 0 0 11.93 15.06c6.07 5.47 13.92 8.24 23.32 8.24 10.78 0 19-2.83 24.63-8.37.17.22.31.45.49.66a20.78 20.78 0 0 0 9.48 6.36 30.28 30.28 0 0 0 9.61 1.35h7.18q5.29 0 12.2-.09 6.69-.11 13.93-.11h13.46q12.48 0 22.15.11c6.56.06 10.78.09 12.63.09 11.25 0 16.72-6 19-9.61 2.7-4.29 4-9.58 4-16.66 0-1.87-.1-3.56-.23-5.19.53 2.14 1.07 4.25 1.6 6.18a45 45 0 0 0 4.12 11.19 26.84 26.84 0 0 0 19.82 14 60 60 0 0 0 9.52.68c10.77 0 18.89-2.51 24.81-7.69 5.56-4.84 9.39-12.12 11.37-21.63l.11-.61q.38-2.25 1.7-9l.95-4.84.44 2.12q1.85 8.71 3 14.71c1.71 8.76 5.21 15.43 10.41 19.82 5.38 4.55 13 6.76 23.26 6.76a71.28 71.28 0 0 0 10.73-.67 27.6 27.6 0 0 0 10.94-4 22.84 22.84 0 0 0 8.48-10.08 61.72 61.72 0 0 0 2.59-7.33l1.64-6.48c.44-1.78 1.05-4.09 1.81-7l3.13-11.64q2-7.35 5.16-19.87l5.5-21.59q2.38-9.33 4.07-16.29c1.14-4.68 2.07-8.65 2.82-12q1-4.36 1.87-7.58l.22-.9c.33-1.55.75-3.21 1.24-5a40.19 40.19 0 0 0 1.45-10.92 21.25 21.25 0 0 0-8.15-16.65c-6.11-4.73-13.98-5.3-19.37-5.3zM1347.56 836.51a48.22 48.22 0 0 1-4-3.23 20 20 0 0 1-3.35-4.34c-.25-.41-1.56-2.75-2.62-9.59a46.6 46.6 0 0 0-6.21-18 40.25 40.25 0 0 0-10.69-11.62 41.78 41.78 0 0 0-6.23-3.69q5.5-5.52 11.07-11.16l12.19-12.39q6-6.12 8.48-9a37.21 37.21 0 0 0 6.89-10.48 26.92 26.92 0 0 0 2.17-10.21 20.23 20.23 0 0 0-5.48-13.88c-3.9-4.18-9.38-6.3-16.28-6.3h-9.23a36.67 36.67 0 0 0-17.13 3.76c-4.25 2.24-8.57 5.84-13.08 10.87 0 0-13.37 14.52-16.94 18.41q-4.36 4.79-8.55 9.44v-18c0-9-4-16.46-11-20.36-4.53-2.53-10.3-3.76-17.66-3.76-9.09 0-14.9 1.17-19.47 3.9a20.53 20.53 0 0 0-8.65 10.89c-1.11-.94-2.19-1.9-3.41-2.77-6.83-4.89-15.43-8.63-25.57-11.1-9.44-2.3-20.64-3.47-33.29-3.47-11.36 0-20.19.24-27 .73-7.85.56-13.91 1.63-18.53 3.26-7.15 2.52-12.17 6.68-14.94 12.39a30.58 30.58 0 0 0-2.77 10.5c-1.09-1.33-2.15-2.68-3.33-3.91a69.14 69.14 0 0 0-25.85-16.91A91 91 0 0 0 1025 711a109.85 109.85 0 0 0-22.17 2.08 72.47 72.47 0 0 0-19.54 7 65.47 65.47 0 0 0-12.84 9 19.74 19.74 0 0 0-8.52-12.42c-4.28-2.86-9.81-4.08-18.48-4.08a57.6 57.6 0 0 0-9.72.71 27.68 27.68 0 0 0-10.14 3.77 26.71 26.71 0 0 0-7.27 6.8 42.78 42.78 0 0 0-4.18 7.2l-14.17 29.6-14.54-30.56a36.93 36.93 0 0 0-4.18-7.08 25.3 25.3 0 0 0-7.88-6.72 30.85 30.85 0 0 0-9.45-3.18 56.9 56.9 0 0 0-9.48-.71c-26.39 0-28.44 15.75-28.44 20.59a23.06 23.06 0 0 0 3.25 12.25c.67 1.1 1.48 2.5 2.49 4.25.89 1.54 9.94 17.55 9.94 17.55q3.33 5.87 7.13 12.69l7.54 13.51 8.24 14.92q2.88 5.22 4.5 8.61a23.4 23.4 0 0 1 1.5 3.76 9.34 9.34 0 0 1 .21 2.27V829q0 4.56.1 9.44.1 4.56.1 8.56v5.31a23.45 23.45 0 0 0 8 18.18c6.22 5.32 14.78 5.93 20.68 5.93 8.74 0 15-1.46 19.65-4.62 3.57-2.43 9.57-8.18 9.57-19.49 0-5.83 0-11.42-.09-16.8q-.1-7.83-.1-12.87a13 13 0 0 1 .11-1.93c.45-1 1.23-2.63 2.56-5l.29-.55c.47-1 1.73-3.2 3.75-6.76l8.18-14.48 1.6-2.88c0 1-.07 2-.07 2.95a105.48 105.48 0 0 0 4.83 32.15A80 80 0 0 0 963 853.63a71.75 71.75 0 0 0 25.71 19.1c10.08 4.51 21.74 6.8 34.67 6.8 13.92 0 26.18-2.42 36.44-7.18a71.9 71.9 0 0 0 25.68-19.6c.15-.19.28-.4.43-.59a28.78 28.78 0 0 0 1 7.58 20.78 20.78 0 0 0 7 10.65 25.44 25.44 0 0 0 10.76 4.94 41.66 41.66 0 0 0 9.25.9c.86 0 1.78 0 2.85-.06 7.64-.36 13.21-1.4 17.52-3.28a21 21 0 0 0 12.78-19.83v-8c0-3.81 0-7.72-.1-11.76q-.06-3.92-.09-7.4c.7.08 1.35.17 2 .28a3.54 3.54 0 0 1 1.11.35 5.14 5.14 0 0 1 .9 1.34 38.06 38.06 0 0 1 2.74 7.75 86.22 86.22 0 0 0 6.47 17.54 45.44 45.44 0 0 0 10.28 13.5 37.19 37.19 0 0 0 15.32 8 64.11 64.11 0 0 0 15.91 1.85c8.26 0 14.49-1.44 19.32-4.42 4.23 2.4 9.46 3.63 16 3.63h7.46c9.06 0 15.79-2.8 20-8.33 3.26-4.27 4.91-9.65 4.91-16v-4.71q0-3.53-.11-7.57c-.06-2.42-.09-4.77-.09-7.07v-4.78c.3-.34.8-.85 1.55-1.54l2-1.8a95.54 95.54 0 0 1 3 9.3c3.93 14.76 9.64 25.37 17.45 32.44 8.36 7.58 19.22 11.42 32.3 11.42 10.13 0 17.26-2.12 22.41-6.67 6.93-6.1 8.38-12.64 8.38-17a20.29 20.29 0 0 0-8.65-16.9z"/><path class="cls-35" d="M406.57 860.92a10.27 10.27 0 0 1-7.27-2.56 8.67 8.67 0 0 1-2.75-6.68v-4.81q0-3.84.1-9.24t.1-12c0-4.38 0-8.74.09-13.06s.1-8.45.1-12.38v-10q0-6.09-.1-13.55c-.07-5-.09-9.66-.09-14s0-8.16-.1-11.31-.1-5-.1-5.69q0-8.25 3.44-12.78t13.26-4.52a24.76 24.76 0 0 1 7.86 1.08 17.45 17.45 0 0 1 5.41 2.95 22.43 22.43 0 0 1 4 4.42c1.18 1.71 2.36 3.54 3.54 5.51q1.19 2.16 4.72 7.76t8.22 13.2q4.62 7.65 9.92 16.3t10 16.9q4.32 7.47 7.07 12.18t4.21 7.36a29.32 29.32 0 0 0 2.26 3.63c.52.66 1 1 1.37 1 .92 0 1.38-.78 1.38-2.36s-.13-6.19-.4-13.46-.39-16.21-.39-26.82q0-11.79-.1-18.08t-.19-9.82q-.11-3.54-.2-5.8c-.07-1.51-.1-3.5-.1-6q0-4.51 2.36-7t7.86-2.46h5.31a11.38 11.38 0 0 1 7.36 2.16q2.65 2.18 2.66 7.47V843q0 8.65-3.93 13.27t-14.74 4.62q-8.44 0-13.36-4.43a47.49 47.49 0 0 1-9-11.49q-1.57-2.55-5.31-8.84t-8.25-14q-4.53-7.65-9.14-15.52t-7.76-13.56q-4.53-8.05-7-13t-3.73-7.56a33 33 0 0 0-1.87-3.54 1.65 1.65 0 0 0-1.37-.88c-.66 0-1 .65-1 2s.09 5.5.29 12.18.29 15.13.29 25.35v7.47q0 5.89.1 13t.1 13.75v9.83q0 4.91-3.34 7.08a14.9 14.9 0 0 1-8.25 2.16zM555.92 808.25c-1.84 0-3 .49-3.64 1.47a6.6 6.6 0 0 0-.89 3.44q0 1.77-.09 6c-.07 2.82-.1 5.86-.1 9.14s.81 5.43 2.45 6.48 4.1 1.57 7.37 1.57h15.13q5.31 0 11.2-.1t11.21-.09h15.13c3.4 0 5.72.91 7 2.75s1.87 5.37 1.87 10.61q0 6.09-1.67 8.74c-1.12 1.77-3.24 2.66-6.39 2.66q-2.75 0-12.48-.1t-22.3-.1h-13.49q-7.37 0-14.15.1t-12 .1h-7.18a15.9 15.9 0 0 1-4.91-.6 5.64 5.64 0 0 1-4-4.51 18.74 18.74 0 0 1-.29-3.35q0-1.76.1-8.94T524 827q.1-9.33.2-19.06t.1-16.8q0-7.08-.1-15.53t-.1-16.21q0-7.75-.1-13.85t-.1-8.45q0-4.53 1.87-6.88c1.24-1.57 4-2.36 8.35-2.36q13.17 0 25.94.1t23.29.29q10.5.21 17.78.3t9.43.1q4.32 0 6.49 2.55t2.16 9.83q0 6.48-2.36 9.43t-8.06 2.95c-.52 0-1.93 0-4.22-.1s-5.11-.1-8.45-.1-6.91-.06-10.71-.19-7.47-.2-11-.2-6.75 0-9.63-.1-4.91-.1-6.09-.1q-6.49 0-6.49 6.48v21.62a7.72 7.72 0 0 0 1.28 4.91c.85 1.06 2.58 1.58 5.21 1.58h50.69c3 0 5.14.75 6.39 2.26s1.87 4.29 1.87 8.35c0 3.53-.53 6.16-1.58 7.86s-3.08 2.55-6.09 2.55zM752.81 803.93q.2-1.57 1.18-6.49t2.36-11.44q1.36-6.59 2.94-14.15t3-14.34c.92-4.53 1.74-8.58 2.46-12.19s1.21-6.19 1.47-7.76a11.82 11.82 0 0 1 4.42-7.47q3.43-2.55 11.89-2.55 7.28 0 9.92 2.16a6.43 6.43 0 0 1 2.66 5.11 25.35 25.35 0 0 1-.89 6.88c-.59 2.09-1.08 4.06-1.47 5.89q-1 3.54-2.06 8.35c-.73 3.22-1.64 7.11-2.75 11.7s-2.46 9.95-4 16.11-3.41 13.36-5.51 21.61-3.8 14.81-5.11 19.66-2.35 8.74-3.14 11.69-1.41 5.34-1.87 7.17-1 3.8-1.47 5.89a50.54 50.54 0 0 1-2 5.61 7.88 7.88 0 0 1-2.95 3.53 13 13 0 0 1-5.11 1.77 58.42 58.42 0 0 1-8.45.49q-9.82 0-13.66-3.24c-2.55-2.16-4.36-5.92-5.4-11.3q-1.18-6.09-3.05-14.94t-3.93-18.56q-2.06-9.74-4-19.46t-3.34-17.39c-.78-4.58-1.47-7.5-2.06-8.74a2.72 2.72 0 0 0-2.46-1.87 2 2 0 0 0-1.67 1.08 13.52 13.52 0 0 0-1.27 4.23q-2.17 12.38-4.33 24.46T699 817.49q-2 10-3.34 17.09c-.92 4.72-1.51 7.86-1.77 9.44q-2 9.42-6.59 13.46t-15 4a45.23 45.23 0 0 1-7.17-.5 12.6 12.6 0 0 1-5.31-2.06 12.86 12.86 0 0 1-3.83-4.42 31.9 31.9 0 0 1-2.75-7.76q-1-3.54-2-7.57T648.66 829l-3.93-15.43q-2.36-9.24-5.89-22.8-4.33-16.69-7-26.72t-4.13-15.82c-1-3.86-1.64-6.68-2-8.45a26.4 26.4 0 0 1-.49-4.81 6.11 6.11 0 0 1 3.14-5.61c2.1-1.24 5.76-1.86 11-1.86q6.87 0 10 2.26t4.52 7.76q.78 2.76 2.55 10.51t3.93 17.49q2.16 9.74 4.32 19.85t3.83 17.63q1.57 7.47 2.55 11.59a55.06 55.06 0 0 0 1.77 6.19 4.76 4.76 0 0 0 1.67 2.55 4.17 4.17 0 0 0 2.07.49c1.7 0 2.91-2 3.63-6s1.6-9 2.65-15q.2-1.57 1-5.7c.53-2.75 1.15-5.92 1.87-9.53s1.44-7.43 2.16-11.49 1.45-8 2.16-11.89 1.38-7.44 2-10.71 1.08-5.9 1.48-7.86c1-6.69 2.84-11.23 5.4-13.66s6.45-3.64 11.69-3.64a28.39 28.39 0 0 1 7.76.89 11.45 11.45 0 0 1 5 2.85 13.34 13.34 0 0 1 3 4.91 46 46 0 0 1 1.87 7.07q1.56 7.49 4.51 21.13t7.08 34.29q1.38 7.47 2.26 12.38t1.57 7.66a11.57 11.57 0 0 0 1.48 3.83 2.31 2.31 0 0 0 2 1.08c1.31 0 2.29-1.89 2.95-5.69s1.54-8.74 2.72-14.81zM925.53 737.51a28.88 28.88 0 0 1 2.76-4.81 11.73 11.73 0 0 1 3.24-3.05 12.77 12.77 0 0 1 4.72-1.67 43 43 0 0 1 7.17-.49c5.24 0 8.64.52 10.22 1.57a4.76 4.76 0 0 1 2.35 4.13c0 .78 0 1.47-.09 2.06a10.8 10.8 0 0 1-.6 2.26 23.62 23.62 0 0 1-1.47 3.24c-.66 1.25-1.57 2.92-2.75 5q-6.09 11-11.89 21.62t-10.61 19.16q-4.82 8.55-8.15 14.44t-4.13 7.47c-1.44 2.62-2.56 4.85-3.34 6.68a19.25 19.25 0 0 0-1.18 7.47q0 5.11.1 13.06t.1 16.61q0 5.12-3.05 7.17t-11.3 2.07q-8.25 0-11-2.36c-1.84-1.58-2.75-3.87-2.75-6.88V847c0-2.75 0-5.69-.1-8.84s-.1-6.19-.1-9.13v-6.23a23.9 23.9 0 0 0-.69-6 38.54 38.54 0 0 0-2.45-6.39q-1.77-3.72-4.92-9.43l-8.25-14.93q-3.74-6.67-7.57-13.56t-7.17-12.78q-3.35-5.88-6-10.61c-1.77-3.14-3.12-5.5-4-7.07q-1.58-2.74-2.65-4.52a8.55 8.55 0 0 1-1.08-4.52q0-5.7 13.56-5.7a42.69 42.69 0 0 1 7 .49 15.78 15.78 0 0 1 4.82 1.57 10.72 10.72 0 0 1 3.24 2.75 22.63 22.63 0 0 1 2.45 4.23l16.32 34.39q3.53 7.08 5.5 11.3t3 6.39a12.62 12.62 0 0 0 1.67 2.75 1.91 1.91 0 0 0 1.38.59 2.24 2.24 0 0 0 1.47-.59 11.2 11.2 0 0 0 1.87-2.85q1.19-2.26 3.24-6.58t5.6-11.8zM1023.39 864.65q-16.3 0-28.59-5.5A56.75 56.75 0 0 1 974.36 844a65.27 65.27 0 0 1-12.28-22.5 90 90 0 0 1-4.08-27.59 91.39 91.39 0 0 1 2-19.65 58.22 58.22 0 0 1 7.58-18.26 78.16 78.16 0 0 1 10.22-13.36 50.16 50.16 0 0 1 12.48-9.43 57 57 0 0 1 15.53-5.5 94.74 94.74 0 0 1 19.16-1.77 76 76 0 0 1 26.92 4.52 54.06 54.06 0 0 1 20.33 13.26 58.22 58.22 0 0 1 12.78 21.5q4.41 12.78 4.42 29.47a92.37 92.37 0 0 1-3.74 26.24 63 63 0 0 1-11.69 22.4 56.75 56.75 0 0 1-20.43 15.52q-12.48 5.81-30.17 5.8zm1.18-25.16q18.29 0 27.22-11.88t8.94-32.33a60.23 60.23 0 0 0-2.16-16.21 39.81 39.81 0 0 0-6.68-13.65 33.43 33.43 0 0 0-11.4-9.44 34.79 34.79 0 0 0-16.12-3.53 37.7 37.7 0 0 0-16.3 3.34 28.08 28.08 0 0 0-11.4 9.63 54.17 54.17 0 0 0-3.15 5.1 36.28 36.28 0 0 0-2.45 5.9 44.2 44.2 0 0 0-1.67 8 88 88 0 0 0-.59 11.1q0 21.22 9.33 32.62t26.43 11.35zM1141.69 810.81q-5.7 0-7.67 1.47t-2 4.82v5.7q0 4.91.1 10.8t.09 11.5v8c0 3-1.27 5.08-3.83 6.18s-6.65 1.81-12.28 2.07a33.19 33.19 0 0 1-8.15-.49 11.25 11.25 0 0 1-4.62-2 5.84 5.84 0 0 1-2.06-3 13.84 13.84 0 0 1-.5-3.74q0-3.33.2-19.55t.2-43.72v-20.98q0-8.14-.1-13.36t-.1-8.16v-5.3a17.84 17.84 0 0 1 1.47-7.76q1.49-3 6.49-4.82t14.64-2.45q9.63-.69 25.94-.69 17.28 0 29.77 3t20.43 8.74a34.46 34.46 0 0 1 11.69 14 45.29 45.29 0 0 1 3.74 18.86 41.45 41.45 0 0 1-2.36 15 28.86 28.86 0 0 1-6 9.72 28.42 28.42 0 0 1-7.86 5.8 75.34 75.34 0 0 1-7.86 3.34c-2.43.85-4.42 1.54-6 2.06s-2.35 1.25-2.35 2.16.71 1.78 2.16 2.56a41.6 41.6 0 0 1 5.11 3.44 40.91 40.91 0 0 1 6.09 6 31.16 31.16 0 0 1 5.3 10.22q2 6.48 4.82 9.53a44 44 0 0 0 5.3 4.92q2.46 1.86 4.23 3.43a6 6 0 0 1 1.77 4.72c0 2-1.12 3.93-3.34 5.9s-6.42 2.94-12.58 2.94a48.49 48.49 0 0 1-12.18-1.38 22.13 22.13 0 0 1-9.24-4.81 30.74 30.74 0 0 1-6.88-9.14 73.16 73.16 0 0 1-5.3-14.54 53.08 53.08 0 0 0-3.93-10.81 18.4 18.4 0 0 0-5.21-6.38 17.4 17.4 0 0 0-7.27-3 55.37 55.37 0 0 0-9.87-.8zm42.83-38.52a18.73 18.73 0 0 0-8-15.92q-8.07-5.88-26.53-5.89a77.48 77.48 0 0 0-8.65.39 15.2 15.2 0 0 0-5.2 1.38 5.16 5.16 0 0 0-2.56 3 15.72 15.72 0 0 0-.69 5.11v5c0 2.68 0 5.57-.1 8.64s-.09 6-.09 8.65v4.81a7.83 7.83 0 0 0 .59 3.15 5 5 0 0 0 2.55 2.35 18.74 18.74 0 0 0 5.8 1.48 86.74 86.74 0 0 0 10.51.49q16.7 0 24.56-6.29a19.92 19.92 0 0 0 7.81-16.35zM1237 860.92q-6.29 0-9.14-1.87c-1.9-1.24-2.85-3.77-2.85-7.57 0-1.31 0-4.25.1-8.84s.13-9.69.2-15.33.13-11.36.19-17.19.1-10.71.1-14.64 0-8.94-.1-15-.1-12.15-.1-18.18 0-11.43-.09-16.21-.1-7.83-.1-9.14c0-3.66 1-6.09 3-7.27s5.89-1.77 11.79-1.77q7.07 0 10.41 1.87c2.23 1.25 3.34 3.7 3.34 7.37v13q0 4.71-.1 10.22c-.06 3.67-.1 7.17-.1 10.51v15.62q0 3.34 2.76 3.34a4.85 4.85 0 0 0 3-1.47 31.49 31.49 0 0 0 3.44-3.64q1.77-2.16 3.54-4.42c1.18-1.5 2.29-2.85 3.34-4q3.14-3.53 8.15-9.13t10.32-11.4l10-10.91 6.88-7.46c3.4-3.81 6.42-6.39 9-7.77a22 22 0 0 1 10.22-2.06h9.23q3.93 0 5.4 1.57a5.24 5.24 0 0 1 1.48 3.73 12.58 12.58 0 0 1-1.08 4.62 23 23 0 0 1-4.23 6.19q-2.36 2.76-8 8.45t-12.18 12.38q-6.59 6.69-13.06 13.17t-10.62 10.81a4.9 4.9 0 0 0-1.27 1.86 5.23 5.23 0 0 0-.3 1.67c0 1.18.72 2 2.16 2.56a51.58 51.58 0 0 0 5.41 1.57c2.16.52 4.55 1.18 7.17 2a26.56 26.56 0 0 1 7.66 3.83 25.52 25.52 0 0 1 6.69 7.38 32.79 32.79 0 0 1 4.12 12.37q1.58 10.23 4.72 15.24a34.21 34.21 0 0 0 6.19 7.66 65.54 65.54 0 0 0 5.3 4.22 5.37 5.37 0 0 1 2.26 4.72c0 2-1.11 3.93-3.34 5.89s-6.42 2.95-12.57 2.95q-14 0-22.31-7.56T1290 829.47q-3.52-13-7.07-18.07t-7.66-5.11a13.65 13.65 0 0 0-4.62.68 15.59 15.59 0 0 0-4.42 2.86q-3.35 2.94-5.6 5a32 32 0 0 0-3.64 3.84 14.06 14.06 0 0 0-2.06 3.53 11.35 11.35 0 0 0-.69 4.13v5.8q0 3.63.1 7.47c.06 2.55.1 4.94.1 7.17v4.71c0 3-.62 5.34-1.87 7s-4 2.46-8.16 2.46z"/><path class="cls-36" d="M183.72-35.59l25.39 369.84-8.25.09-48.08-353.89 30.94-16.04z"/><path class="cls-36" d="M173.8 65.33s18.84 66.85 81.4 33.61c0 0-29.76-72.11-81.4-33.61zM134.48 174.77s50.67 3.86 43.56-47.49c-.04 0-57.04 2.33-43.56 47.49zM190.31 191.77s-1.3 98 96.65 78.08c.04 0-11.36-109.48-96.65-78.08zM1821.62-35.59l-25.4 369.84 8.26.09 48.08-353.89-30.94-16.04z"/><path class="cls-36" d="M1831.54 65.33s-18.84 66.85-81.4 33.61c0 0 29.76-72.11 81.4-33.61zM1870.86 174.77s-50.67 3.86-43.56-47.49c0 0 57.04 2.33 43.56 47.49zM1815 191.77s1.3 98-96.66 78.08c.03 0 11.4-109.48 96.66-78.08zM174.94 921.24l21.28-195.56-4.37-.23-32.97 186.63 16.06 9.16z"/><path class="cls-36" d="M171.81 867.52s11.4-35 43.88-16.1c0 0-17.31 37.58-43.88 16.1zM153.28 808.66s26.95-1 22.09 26.1c0 0-30.19-2.44-22.09-26.1zM183.24 800.83s1.38-52 52.9-39.36c0 0-8.34 57.81-52.9 39.36z"/><path class="cls-36" d="M-34.7 621.41l170.06 61.08-11.19 212.65 78.34 13.99 25.19 235.03-267.17 3.3 4.77-526.05zM1754.94 921.24l-21.29-195.56 4.38-.23L1771 912.08l-16.06 9.16z"/><path class="cls-36" d="M1758.07 867.52s-11.41-35-43.88-16.1c0 0 17.31 37.58 43.88 16.1zM1776.6 808.66s-26.95-1-22.09 26.1c0 0 30.19-2.44 22.09-26.1zM1746.64 800.83s-1.38-52-52.9-39.36c0 0 8.34 57.81 52.9 39.36z"/><path class="cls-36" d="M1964.57 621.41l-170.05 61.08 11.19 212.65-78.35 13.99-25.18 235.03 267.17 3.3-4.78-526.05zM15.05 511.73s168.79-80.88 206.3 86.74c0 0-125.42 65.65-206.3-86.74z"/></g></g></svg>